<?xml version="1.0" encoding="UTF-8"?>
<svg version="1.1" xmlns="http://www.w3.org/2000/svg" width="665" height="375">
<path d="M0 0 C0.94082932 0.00359528 1.88165863 0.00719055 2.85099792 0.01089478 C4.3288829 0.01067574 4.3288829 0.01067574 5.83662415 0.01045227 C9.11023623 0.01115185 12.3837922 0.01894632 15.65739441 0.02676392 C17.92040984 0.02862794 20.18342567 0.03005191 22.44644165 0.03105164 C28.41577764 0.03487807 34.38508948 0.04470942 40.35441589 0.05575562 C46.44043145 0.06596705 52.52645089 0.07054868 58.61247253 0.07559204 C70.56365505 0.08633157 82.5148196 0.10340949 94.46598816 0.12442017 C96.01905475 3.80973764 96.72182051 6.55970295 96.73161316 10.57363892 C96.73548035 12.09247681 96.73548035 12.09247681 96.73942566 13.64199829 C96.73169128 14.68807251 96.72395691 15.73414673 96.71598816 16.81192017 C96.72758972 18.39843384 96.72758972 18.39843384 96.73942566 20.01699829 C96.73684753 21.0256897 96.73426941 22.0343811 96.73161316 23.07363892 C96.7293573 23.99491577 96.72710144 24.91619263 96.72477722 25.86538696 C96.46598816 28.12442017 96.46598816 28.12442017 94.46598816 30.12442017 C92.08317566 30.31973267 92.08317566 30.31973267 89.34098816 30.24942017 C88.43091003 30.23137329 87.52083191 30.21332642 86.58317566 30.19473267 C85.88450378 30.17152954 85.18583191 30.14832642 84.46598816 30.12442017 C85.59015853 31.95826233 86.71540059 33.79144752 87.84098816 35.62442017 C88.36704651 36.48172729 88.36704651 36.48172729 88.9037323 37.35635376 C90.97927046 40.73164626 93.07283745 44.09451761 95.18864441 47.44473267 C95.63997742 48.16080688 96.09131042 48.8768811 96.55632019 49.61465454 C97.44398132 51.02127088 98.3342212 52.42626367 99.22721863 53.82949829 C100.95639836 56.57266519 102.43632345 59.03542605 103.46598816 62.12442017 C107.46270951 58.46558589 110.45686744 54.1984889 113.59098816 49.81192017 C114.15922302 49.02317505 114.72745789 48.23442993 115.31291199 47.42178345 C119.50383645 41.56893054 123.53584564 35.62264495 127.39421082 29.54507446 C128.36856776 28.03828769 129.41071547 26.57568768 130.46598816 25.12442017 C131.12598816 25.12442017 131.78598816 25.12442017 132.46598816 25.12442017 C132.72895691 24.39738892 132.99192566 23.67035767 133.26286316 22.92129517 C134.48342507 20.08388501 135.90537671 17.87012784 137.71598816 15.37442017 C140.66605488 11.26649845 143.47374854 7.09588411 146.20426941 2.83926392 C147.46598816 1.12442017 147.46598816 1.12442017 149.46598816 0.12442017 C152.09225949 0.03774762 154.69161299 0.00881881 157.31755066 0.02676392 C158.09158234 0.02817886 158.86561401 0.02959381 159.6631012 0.03105164 C162.13910257 0.03665613 164.61501404 0.04920933 167.09098816 0.06192017 C168.76807019 0.06693459 170.44515363 0.0714976 172.12223816 0.07559204 C176.23685622 0.08662702 180.35140694 0.10389463 184.46598816 0.12442017 C185.04020691 1.98526001 185.04020691 1.98526001 185.46598816 4.12442017 C184.27848816 6.35098267 184.27848816 6.35098267 182.46598816 8.74942017 C181.8150116 9.63113892 181.16403503 10.51285767 180.49333191 11.42129517 C179.82430847 12.31332642 179.15528503 13.20535767 178.46598816 14.12442017 C177.31296542 15.74432683 176.16697008 17.3692613 175.02848816 18.99942017 C174.44325378 19.83602173 173.85801941 20.67262329 173.25505066 21.53457642 C170.37128932 25.7091043 167.5697261 29.93720332 164.76628113 34.16592407 C162.00617455 38.32318562 159.23475015 42.47292068 156.46598816 46.62442017 C155.24199268 48.4603329 154.0180335 50.29626984 152.79411316 52.13223267 C152.21725769 52.99751587 151.64040222 53.86279907 151.04606628 54.75430298 C150.26392761 55.92751099 150.26392761 55.92751099 149.46598816 57.12442017 C145.46240743 63.12979126 141.4588267 69.13516235 137.45524597 75.14053345 C137.00504089 75.81584106 136.55483582 76.49114868 136.09098816 77.18692017 C133.88265483 80.49942017 131.67432149 83.81192017 129.46598816 87.12442017 C129.81186815 90.69274874 130.9363455 93.3563362 132.71598816 96.43692017 C133.16329285 97.21293579 133.61059753 97.98895142 134.07145691 98.78848267 C136.72045408 103.22573843 139.42938287 107.60406574 142.34098816 111.87442017 C144.23383395 114.76936079 145.98277275 117.69496687 147.71598816 120.68692017 C152.4449372 128.84866091 157.27082019 136.95669372 162.59098816 144.74942017 C165.23046114 148.65922774 167.46493067 152.7106649 169.67692566 156.87442017 C171.09552206 159.45143371 172.55611454 161.97710957 174.06755066 164.49942017 C174.52420105 165.26254517 174.98085144 166.02567017 175.45133972 166.81192017 C176.36719802 168.33599076 177.28830855 169.85691923 178.2150116 171.37442017 C178.63556824 172.07567017 179.05612488 172.77692017 179.48942566 173.49942017 C179.8701825 174.12590454 180.25093933 174.75238892 180.64323425 175.39785767 C181.46598816 177.12442017 181.46598816 177.12442017 181.46598816 180.12442017 C177.18492118 182.26495365 171.47266861 181.31027468 166.717453 181.3097229 C164.60608116 181.31190457 162.49523595 181.3300512 160.38395691 181.34902954 C159.03890661 181.35196458 157.69385383 181.35394864 156.34880066 181.35488892 C155.12564148 181.3589978 153.9024823 181.36310669 152.64225769 181.36734009 C149.60775328 181.13526231 147.96536534 180.79772582 145.46598816 179.12442017 C143.82536316 176.97988892 143.82536316 176.97988892 142.21598816 174.31192017 C141.6165741 173.33223267 141.01716003 172.35254517 140.39958191 171.34317017 C139.442453 169.74988892 139.442453 169.74988892 138.46598816 168.12442017 C137.41730031 166.41515698 136.36858724 164.70590631 135.3165741 162.99868774 C134.32704455 161.39081858 133.34362161 159.77919599 132.36051941 158.16738892 C131.05425376 156.06928388 129.7119367 153.99334298 128.34098816 151.93692017 C126.65097254 149.40189674 125.14653885 146.81324073 123.65348816 144.15957642 C121.0673398 139.72739452 118.23719889 135.44221946 115.46598816 131.12442017 C114.15266161 129.06244638 112.84012903 126.99996663 111.52848816 124.93692017 C110.94196472 124.01524048 110.35544128 123.09356079 109.75114441 122.14395142 C109.11499207 121.14428345 109.11499207 121.14428345 108.46598816 120.12442017 C96.27259981 135.09070512 96.27259981 135.09070512 87.46598816 152.12442017 C89.41505066 152.09348267 89.41505066 152.09348267 91.40348816 152.06192017 C92.75764449 152.04042562 94.11354899 152.05293818 95.46598816 152.12442017 C97.2404841 153.8989161 96.59628888 156.47459277 96.59880066 158.87442017 C96.60008972 160.03973267 96.60137878 161.20504517 96.60270691 162.40567017 C96.59883972 163.63285767 96.59497253 164.86004517 96.59098816 166.12442017 C96.59485535 167.35160767 96.59872253 168.57879517 96.60270691 169.84317017 C96.60141785 171.00848267 96.60012878 172.17379517 96.59880066 173.37442017 C96.59767273 174.45207642 96.5965448 175.52973267 96.59538269 176.64004517 C96.46598816 179.12442017 96.46598816 179.12442017 95.46598816 180.12442017 C93.41042155 180.21855704 91.35158635 180.24185014 89.29386902 180.23794556 C88.64998734 180.23809158 88.00610565 180.23823761 87.3427124 180.23838806 C85.20538513 180.23768902 83.06814403 180.22989707 80.93083191 180.22207642 C79.45252531 180.2202122 77.97421809 180.21878832 76.49591064 180.2177887 C72.59800014 180.21396375 68.70012667 180.20413368 64.80223083 180.19308472 C60.82752483 180.18287008 56.85281287 180.17829097 52.87809753 180.17324829 C45.07404416 180.16251139 37.27002134 180.14543526 29.46598816 180.12442017 C29.13598816 179.13442017 28.80598816 178.14442017 28.46598816 177.12442017 C30.12223816 174.34317017 30.12223816 174.34317017 32.46598816 171.12442017 C33.19817566 170.06223267 33.93036316 169.00004517 34.68473816 167.90567017 C36.20557149 165.71817017 37.72640483 163.53067017 39.24723816 161.34317017 C40.68688939 159.25466205 42.1050352 157.15110237 43.49723816 155.03067017 C45.36636234 152.27148685 47.3853906 149.72516711 49.46598816 147.12442017 C50.81876931 145.13752285 52.15167121 143.13696799 53.46598816 141.12442017 C55.97232371 137.28659385 58.60336348 133.70006022 61.46598816 130.12442017 C63.45647311 127.37610331 65.39814588 124.59405074 67.34098816 121.81192017 C71.73123815 115.52970822 76.22700696 109.34852673 80.89079285 103.26626587 C82.24170706 101.49944741 83.57381521 99.71975519 84.90348816 97.93692017 C85.36174988 97.34717407 85.8200116 96.75742798 86.29216003 96.14981079 C88.13531117 93.65057569 89.44563342 91.83344349 89.53630066 88.67520142 C88.01043576 85.03874238 86.03756435 81.80883027 83.90348816 78.49942017 C83.45384705 77.79083862 83.00420593 77.08225708 82.54093933 76.35220337 C79.32138644 71.32660152 75.89720411 66.48646026 72.33317566 61.69863892 C69.15439702 57.3161805 66.328863 52.71667868 63.46598816 48.12442017 C58.07524703 38.66583405 58.07524703 38.66583405 51.46598816 30.12442017 C49.39336739 30.03674904 47.31778522 30.01746143 45.24333191 30.02676392 C44.10887634 30.02926147 42.97442078 30.03175903 41.80558777 30.03433228 C40.3528949 30.04343628 38.90020203 30.05254028 37.40348816 30.06192017 C32.80411316 30.08254517 28.20473816 30.10317017 23.46598816 30.12442017 C23.46598816 45.30442017 23.46598816 60.48442017 23.46598816 76.12442017 C26.97997253 76.1128186 30.49395691 76.10121704 34.11442566 76.08926392 C37.50667734 76.08147179 40.89892804 76.07539591 44.29118347 76.06948853 C46.65414372 76.06445058 49.01710084 76.05762009 51.38005066 76.04898071 C54.7706835 76.03689163 58.16127524 76.03118657 61.55192566 76.02676392 C62.61341827 76.02160263 63.67491089 76.01644135 64.76856995 76.01112366 C66.23986862 76.01101036 66.23986862 76.01101036 67.7408905 76.01089478 C68.60692902 76.00867416 69.47296753 76.00645355 70.36524963 76.00416565 C72.46598816 76.12442017 72.46598816 76.12442017 74.46598816 77.12442017 C74.52394948 81.22852771 74.55957129 85.33253032 74.59098816 89.43692017 C74.60774597 90.60416626 74.62450378 91.77141235 74.64176941 92.97402954 C74.64821472 94.09229126 74.65466003 95.21055298 74.66130066 96.36270142 C74.67177429 97.39435425 74.68224792 98.42600708 74.69303894 99.48892212 C74.46598816 102.12442017 74.46598816 102.12442017 72.46598816 105.12442017 C70.36524963 105.48518372 70.36524963 105.48518372 67.7408905 105.46499634 C66.76002472 105.46476974 65.77915894 105.46454315 64.76856995 105.46430969 C63.70707733 105.44882584 62.64558472 105.43334198 61.55192566 105.41738892 C60.46714935 105.41314407 59.38237305 105.40889923 58.26472473 105.40452576 C54.78989649 105.38769317 51.31564198 105.35003206 47.84098816 105.31192017 C45.48943402 105.29687928 43.13787081 105.28318984 40.78630066 105.27090454 C35.01246272 105.24032277 29.23986984 105.18160828 23.46598816 105.12442017 C23.46598816 120.63442017 23.46598816 136.14442017 23.46598816 152.12442017 C27.09598816 152.12442017 30.72598816 152.12442017 34.46598816 152.12442017 C34.79598816 152.78442017 35.12598816 153.44442017 35.46598816 154.12442017 C33.56587327 156.73707814 31.66538442 159.34945082 29.76286316 161.96035767 C28.26579127 164.02265057 26.77583715 166.09013507 25.29411316 168.16348267 C24.60833191 169.11996704 23.92255066 170.07645142 23.21598816 171.06192017 C22.59208191 171.9371936 21.96817566 172.81246704 21.32536316 173.71426392 C20.71176941 174.50961548 20.09817566 175.30496704 19.46598816 176.12442017 C18.9593866 176.88238892 18.45278503 177.64035767 17.93083191 178.42129517 C13.77729248 181.29125268 9.18604772 180.57767235 4.27848816 180.43692017 C3.25561707 180.4272522 2.23274597 180.41758423 1.17887878 180.40762329 C-6.36595886 180.29247315 -6.36595886 180.29247315 -7.53401184 179.12442017 C-7.63331728 176.83581797 -7.6603364 174.544082 -7.66099548 172.25332642 C-7.66255547 171.52630524 -7.66411546 170.79928406 -7.66572273 170.05023193 C-7.66973531 167.59577451 -7.6665421 165.14137813 -7.66340637 162.68692017 C-7.6647603 160.93472253 -7.66654018 159.18252518 -7.66871643 157.43032837 C-7.67329179 152.65773832 -7.67150079 147.88516979 -7.66833735 143.11257935 C-7.66581427 138.12954651 -7.66815113 133.14651557 -7.66972351 128.16348267 C-7.67154536 119.79368762 -7.66913849 111.42390138 -7.66438293 103.05410767 C-7.65894029 93.3628163 -7.66070293 83.67154598 -7.66620934 73.98025513 C-7.67074003 65.67540303 -7.67139123 57.37055728 -7.66877067 49.06570435 C-7.66720765 44.09861913 -7.6670148 39.13154382 -7.67030716 34.16445923 C-7.67318524 29.49585988 -7.67121135 24.82728779 -7.6654129 20.15869141 C-7.66408496 18.44012497 -7.66447999 16.72155627 -7.66667557 15.00299072 C-7.66938576 12.66713363 -7.66600759 10.33136527 -7.66099548 7.99551392 C-7.66061846 6.68510132 -7.66024143 5.37468872 -7.65985298 4.02456665 C-7.42753746 -1.32939814 -4.70146412 0.0075927 0 0 Z " fill="#60C568" transform="translate(247.5340118408203,95.87557983398438)"/>
<path d="M0 0 C33 0 66 0 100 0 C100 8.58 100 17.16 100 26 C87 26 87 26 83.76171875 23.4453125 C82.73498047 21.80175781 82.73498047 21.80175781 81.6875 20.125 C80.96949219 19.03445312 80.25148438 17.94390625 79.51171875 16.8203125 C78 14 78 14 78 12 C73.85410332 11.91995451 69.71331617 11.89976864 65.56713867 11.93286133 C64.15985521 11.9359266 62.75243884 11.92318958 61.34545898 11.89379883 C52.92997601 11.56275001 52.92997601 11.56275001 45.50830078 14.93408203 C42.708772 18.42472883 40.87192491 21.59119964 40 26 C28.17849482 26.86078921 28.17849482 26.86078921 24.25 23.625 C22 21 22 21 22 19 C21.38125 18.71125 20.7625 18.4225 20.125 18.125 C18 17 18 17 16 15 C16.495 23.415 16.495 23.415 17 32 C18.98 32.66 20.96 33.32 23 34 C23.33 34.99 23.66 35.98 24 37 C24.66 37 25.32 37 26 37 C27.58662647 40.17325294 27.12088252 43.58783547 27.09765625 47.0703125 C27.09664917 47.77599365 27.09564209 48.4816748 27.09460449 49.20874023 C27.08936828 51.84750999 27.07540702 54.48625661 27.0625 57.125 C27.041875 63.02375 27.02125 68.9225 27 75 C44.49 75 61.98 75 80 75 C80 100 80 100 78 103 C75.89926147 103.36076355 75.89926147 103.36076355 73.27490234 103.34057617 C72.29403656 103.34034958 71.31317078 103.34012299 70.30258179 103.33988953 C69.24108917 103.32440567 68.17959656 103.30892181 67.0859375 103.29296875 C66.00116119 103.28872391 64.91638489 103.28447906 63.79873657 103.28010559 C60.32390833 103.263273 56.84965382 103.22561189 53.375 103.1875 C51.02344586 103.17245911 48.67188265 103.15876967 46.3203125 103.14648438 C40.54647456 103.11590261 34.77388168 103.05718812 29 103 C29 118.51 29 134.02 29 150 C32.63 150 36.26 150 40 150 C40.33 150.66 40.66 151.32 41 152 C39.10095592 154.6111856 37.20163181 157.22216005 35.30078125 159.83203125 C33.79257128 161.90870066 32.28976173 163.98930534 30.79296875 166.07421875 C29.75076172 167.52248047 29.75076172 167.52248047 28.6875 169 C28.05199219 169.886875 27.41648437 170.77375 26.76171875 171.6875 C25 174 25 174 22 177 C14.74 177 7.48 177 0 177 C0 118.59 0 60.18 0 0 Z " fill="#B5B5B7" transform="translate(242,98)"/>
<path d="M0 0 C-2.08328712 8.48195471 -6.718554 14.95471418 -11.62841797 22.01513672 C-13.83670563 25.21082534 -15.97815824 28.45036426 -18.125 31.6875 C-18.96060224 32.94162969 -19.79653413 34.19553981 -20.6328125 35.44921875 C-21.23270996 36.34906494 -21.23270996 36.34906494 -21.84472656 37.26708984 C-24.89648438 41.84472656 -27.94824219 46.42236328 -31 51 C-31.4237793 51.63566895 -31.84755859 52.27133789 -32.28417969 52.92626953 C-35.85611979 58.28417969 -39.4280599 63.64208984 -43 69 C-42.65412001 72.56832857 -41.52964265 75.23191604 -39.75 78.3125 C-39.30269531 79.08851563 -38.85539062 79.86453125 -38.39453125 80.6640625 C-35.74553408 85.10131827 -33.03660529 89.47964558 -30.125 93.75 C-28.23215421 96.64494062 -26.48321541 99.57054671 -24.75 102.5625 C-20.02105096 110.72424075 -15.19516797 118.83227355 -9.875 126.625 C-7.23552701 130.53480758 -5.00105749 134.58624473 -2.7890625 138.75 C-1.3704661 141.32701355 0.09012638 143.8526894 1.6015625 146.375 C2.28653809 147.5196875 2.28653809 147.5196875 2.98535156 148.6875 C3.90120986 150.2115706 4.82232039 151.73249907 5.74902344 153.25 C6.16958008 153.95125 6.59013672 154.6525 7.0234375 155.375 C7.40419434 156.00148438 7.78495117 156.62796875 8.17724609 157.2734375 C9 159 9 159 9 162 C4.71893302 164.14053349 -0.99331955 163.18585451 -5.74853516 163.18530273 C-7.859907 163.1874844 -9.97075221 163.20563103 -12.08203125 163.22460938 C-13.42708155 163.22754442 -14.77213433 163.22952847 -16.1171875 163.23046875 C-17.34034668 163.23457764 -18.56350586 163.23868652 -19.82373047 163.24291992 C-22.85823488 163.01084214 -24.50062282 162.67330566 -27 161 C-28.640625 158.85546875 -28.640625 158.85546875 -30.25 156.1875 C-30.84941406 155.2078125 -31.44882812 154.228125 -32.06640625 153.21875 C-32.70449219 152.1565625 -33.34257812 151.094375 -34 150 C-35.04868785 148.29073681 -36.09740092 146.58148614 -37.14941406 144.87426758 C-38.13894361 143.26639842 -39.12236655 141.65477582 -40.10546875 140.04296875 C-41.4117344 137.94486371 -42.75405146 135.86892281 -44.125 133.8125 C-45.81501562 131.27747657 -47.31944931 128.68882057 -48.8125 126.03515625 C-51.39864836 121.60297436 -54.22878927 117.31779929 -57 113 C-58.31332655 110.93802622 -59.62585913 108.87554647 -60.9375 106.8125 C-61.81728516 105.42998047 -61.81728516 105.42998047 -62.71484375 104.01953125 C-63.35099609 103.01986328 -63.35099609 103.01986328 -64 102 C-69.3915916 108.66161095 -74.45056145 115.56612601 -79.125 122.75 C-81.78507005 126.80587603 -84.76936403 130.38476451 -88 134 C-84.7 134.33 -81.4 134.66 -78 135 C-78 142.92 -78 150.84 -78 159 C-79.65 158.01 -81.3 157.02 -83 156 C-83 155.34 -83 154.68 -83 154 C-83.7321875 153.73574219 -84.464375 153.47148437 -85.21875 153.19921875 C-88.7911195 151.65888527 -91.62211312 149.47246073 -94.71875 147.14453125 C-98.54624014 145.22423226 -101.41087041 146.8110339 -105.3125 148.0625 C-106.199375 148.371875 -107.08625 148.68125 -108 149 C-107.09808709 144.6606523 -104.84929149 141.47967388 -102.375 137.875 C-101.69232056 136.86651001 -101.69232056 136.86651001 -100.99584961 135.83764648 C-97.99825126 131.42144252 -94.95551943 127.03729088 -91.87890625 122.67578125 C-87.53327979 116.48710323 -83.27441458 110.23795794 -79 104 C-78.08444336 102.66557861 -78.08444336 102.66557861 -77.15039062 101.30419922 C-75.18153856 98.43336804 -73.21547583 95.56064349 -71.25 92.6875 C-70.63640625 91.79321289 -70.0228125 90.89892578 -69.390625 89.97753906 C-65.66447998 84.52283215 -62.07829457 78.99684939 -58.54931641 73.4128418 C-56.81819796 70.71686897 -54.98537418 68.12492971 -53.0625 65.5625 C-49.53017 60.77544274 -46.21635714 55.87327008 -42.9375 50.91015625 C-40.03585096 46.55183259 -37.02063319 42.27632366 -34 38 C-30.59317059 33.17149115 -27.21497705 28.32747044 -23.9140625 23.42578125 C-23.35348145 22.5968335 -22.79290039 21.76788574 -22.21533203 20.91381836 C-21.099794 19.26273951 -19.98854873 17.60874935 -18.88232422 15.95141602 C-6.04113611 -3.02056806 -6.04113611 -3.02056806 0 0 Z " fill="#E4E5E5" transform="translate(420,114)"/>
<path d="M0 0 C1.9375 0.3125 1.9375 0.3125 4 1 C4.33 1.99 4.66 2.98 5 4 C5.66 4 6.32 4 7 4 C8.58662647 7.17325294 8.12088252 10.58783547 8.09765625 14.0703125 C8.09664917 14.77599365 8.09564209 15.4816748 8.09460449 16.20874023 C8.08936828 18.84750999 8.07540702 21.48625661 8.0625 24.125 C8.041875 30.02375 8.02125 35.9225 8 42 C24.83 42 41.66 42 59 42 C59 50.58 59 59.16 59 68 C51.9157987 68.23050547 44.84474005 68.42918323 37.75976562 68.54931641 C35.35404243 68.59940871 32.9486207 68.66750621 30.54394531 68.75439453 C9.39904622 69.49893323 9.39904622 69.49893323 4.13574219 65.72949219 C1.67775035 63.27150035 -0.24652259 60.99217866 -2 58 C-1.34 56.68 -0.68 55.36 0 54 C2.31 54 4.62 54 7 54 C6.67 50.7 6.34 47.4 6 44 C2.04 46.475 2.04 46.475 -2 49 C-2.04982449 43.62891965 -2.08591866 38.25797695 -2.10986328 32.88671875 C-2.11985643 31.06345269 -2.13345551 29.24020238 -2.15087891 27.41699219 C-2.32450751 8.767237 -2.32450751 8.767237 0 0 Z " fill="#DBDBDB" transform="translate(261,131)"/>
<path d="M0 0 C33 0 66 0 100 0 C100 8.58 100 17.16 100 26 C87 26 87 26 83.76171875 23.4453125 C82.73498047 21.80175781 82.73498047 21.80175781 81.6875 20.125 C80.96949219 19.03445312 80.25148438 17.94390625 79.51171875 16.8203125 C78 14 78 14 78 12 C77.27449951 12.03029297 76.54899902 12.06058594 75.80151367 12.09179688 C68.79500894 12.37565994 61.78865664 12.61179712 54.77906799 12.80111694 C50.95839752 12.90616894 47.14001403 13.03069853 43.32128906 13.19238281 C39.41267425 13.35691775 35.50496308 13.47393302 31.59390259 13.56176758 C30.08845623 13.60349323 28.58335807 13.66126729 27.07919312 13.73608398 C18.98103351 14.12772436 13.07908216 13.83997945 6.48046875 8.5859375 C3.83276367 6.14208984 3.83276367 6.14208984 2 4 C2 3.34 2 2.68 2 2 C1.34 2 0.68 2 0 2 C0 1.34 0 0.68 0 0 Z " fill="#F1F2F2" transform="translate(242,98)"/>
<path d="M0 0 C3.36106052 3.08097214 5.70933358 5.89952551 7.89648438 9.95605469 C9.19076849 12.35334375 10.56725315 14.69353976 11.953125 17.0390625 C12.48591064 17.94269531 13.01869629 18.84632813 13.56762695 19.77734375 C14.12281006 20.71707031 14.67799316 21.65679687 15.25 22.625 C15.8277417 23.60339844 16.4054834 24.58179688 17.00073242 25.58984375 C20.66391804 31.77969999 24.34712235 37.94849259 28.2421875 43.99609375 C30 47 30 47 31.3828125 50.47265625 C37.21865611 63.94788308 50.08619796 67.76176633 63 73 C62.55527344 72.22914063 62.11054688 71.45828125 61.65234375 70.6640625 C61.08644531 69.66117187 60.52054687 68.65828125 59.9375 67.625 C59.08478516 66.12839844 59.08478516 66.12839844 58.21484375 64.6015625 C57.81394531 63.74304688 57.41304688 62.88453125 57 62 C57.495 61.01 57.495 61.01 58 60 C59.23289582 61.96386173 60.46292293 63.92937324 61.6875 65.8984375 C62.71577337 67.54489903 63.76095994 69.18079991 64.8125 70.8125 C66 73 66 73 66 76 C61.71893302 78.14053349 56.00668045 77.18585451 51.25146484 77.18530273 C49.140093 77.1874844 47.02924779 77.20563103 44.91796875 77.22460938 C43.57291845 77.22754442 42.22786567 77.22952847 40.8828125 77.23046875 C39.65965332 77.23457764 38.43649414 77.23868652 37.17626953 77.24291992 C34.14176512 77.01084214 32.49937718 76.67330566 30 75 C28.359375 72.85546875 28.359375 72.85546875 26.75 70.1875 C26.15058594 69.2078125 25.55117188 68.228125 24.93359375 67.21875 C24.29550781 66.1565625 23.65742188 65.094375 23 64 C21.95131215 62.29073681 20.90259908 60.58148614 19.85058594 58.87426758 C18.86105639 57.26639842 17.87763345 55.65477582 16.89453125 54.04296875 C15.5882656 51.94486371 14.24594854 49.86892281 12.875 47.8125 C11.18498438 45.27747657 9.68055069 42.68882057 8.1875 40.03515625 C5.60135164 35.60297436 2.77121073 31.31779929 0 27 C-1.31332655 24.93802622 -2.62585913 22.87554647 -3.9375 20.8125 C-4.52402344 19.89082031 -5.11054688 18.96914062 -5.71484375 18.01953125 C-6.13894531 17.35308594 -6.56304687 16.68664062 -7 16 C-13.03651279 23.45844692 -18.61852523 31.22796418 -23.7734375 39.3203125 C-25 41 -25 41 -27 42 C-22.24526218 32.05619735 -15.3750291 23.00833573 -9.24755859 13.86328125 C-7.2854276 10.93275605 -5.33048774 7.99746213 -3.375 5.0625 C-2.25 3.375 -1.125 1.6875 0 0 Z " fill="#79797B" transform="translate(363,200)"/>
<path d="M0 0 C0.99 0.33 1.98 0.66 3 1 C-2.26697525 9.48468368 -7.87185478 17.70715063 -13.55615234 25.91503906 C-19.61059108 34.65783696 -25.6412228 43.41629954 -31.5625 52.25 C-31.98023682 52.87011963 -32.39797363 53.49023926 -32.82836914 54.12915039 C-34.74954468 57.00792121 -36.55738001 59.84962985 -38 63 C-37.113125 62.525625 -36.22625 62.05125 -35.3125 61.5625 C-32.28150436 60.13278508 -30.30719271 59.24425352 -27 59 C-24.2109375 60.36328125 -24.2109375 60.36328125 -21.375 62.3125 C-20.43398438 62.94800781 -19.49296875 63.58351563 -18.5234375 64.23828125 C-17.69070313 64.81964844 -16.85796875 65.40101563 -16 66 C-15.01 66.66 -14.02 67.32 -13 68 C-13 68.66 -13 69.32 -13 70 C-11.68 70.66 -10.36 71.32 -9 72 C-8.67 64.41 -8.34 56.82 -8 49 C-11.63 49 -15.26 49 -19 49 C-18.01 47.35 -17.02 45.7 -16 44 C-15.505 45.98 -15.505 45.98 -15 48 C-13.700625 47.979375 -12.40125 47.95875 -11.0625 47.9375 C-9.70834367 47.91600546 -8.35243917 47.92851801 -7 48 C-5.22550406 49.77449594 -5.86969928 52.35017261 -5.8671875 54.75 C-5.86589844 55.9153125 -5.86460937 57.080625 -5.86328125 58.28125 C-5.86714844 59.5084375 -5.87101562 60.735625 -5.875 62 C-5.87113281 63.2271875 -5.86726563 64.454375 -5.86328125 65.71875 C-5.86457031 66.8840625 -5.86585938 68.049375 -5.8671875 69.25 C-5.86831543 70.32765625 -5.86944336 71.4053125 -5.87060547 72.515625 C-6 75 -6 75 -7 76 C-9.05556661 76.09413687 -11.11440181 76.11742998 -13.17211914 76.11352539 C-14.13794167 76.11374443 -14.13794167 76.11374443 -15.12327576 76.1139679 C-17.26060303 76.11326885 -19.39784413 76.10547691 -21.53515625 76.09765625 C-23.01346285 76.09579204 -24.49177007 76.09436815 -25.97007751 76.09336853 C-29.86798802 76.08954359 -33.76586149 76.07971352 -37.66375732 76.06866455 C-41.63846333 76.05844992 -45.61317529 76.0538708 -49.58789062 76.04882812 C-57.391944 76.03809122 -65.19596682 76.02101509 -73 76 C-73.33 75.01 -73.66 74.02 -74 73 C-72.34375 70.21875 -72.34375 70.21875 -70 67 C-69.2678125 65.9378125 -68.535625 64.875625 -67.78125 63.78125 C-66.26041667 61.59375 -64.73958333 59.40625 -63.21875 57.21875 C-61.77909877 55.13024188 -60.36095296 53.0266822 -58.96875 50.90625 C-57.09962582 48.14706668 -55.08059756 45.60074695 -53 43 C-51.64721885 41.01310269 -50.31431695 39.01254782 -49 37 C-47.12824881 34.13388099 -45.2748689 31.34272356 -43.1328125 28.671875 C-39.60182007 24.24843393 -36.45715123 19.54544723 -33.24609375 14.88671875 C-32.72917969 14.14550781 -32.21226562 13.40429688 -31.6796875 12.640625 C-31.21288574 11.96547852 -30.74608398 11.29033203 -30.26513672 10.59472656 C-29 9 -29 9 -27 8 C-27.49230769 14.52307692 -27.49230769 14.52307692 -30.0625 16.9375 C-30.701875 17.288125 -31.34125 17.63875 -32 18 C-31.34 18.99 -30.68 19.98 -30 21 C-30.66 21.66 -31.32 22.32 -32 23 C-32.309375 24.010625 -32.61875 25.02125 -32.9375 26.0625 C-33.4634375 27.5165625 -33.4634375 27.5165625 -34 29 C-34.99 29.33 -35.98 29.66 -37 30 C-37.72870472 32.31470912 -38.39239518 34.6505947 -39 37 C-41 40 -41 40 -43.0625 40.9375 C-44.0215625 41.4634375 -44.0215625 41.4634375 -45 42 C-45.34342449 43.33076989 -45.67619874 44.66431979 -46 46 C-47.98332447 47.77815297 -49.71415035 48.88566014 -52.1875 49.875 C-54.25298082 50.86371174 -54.25298082 50.86371174 -54.5625 53.3125 C-54.706875 54.199375 -54.85125 55.08625 -55 56 C-56.4375 58.8125 -56.4375 58.8125 -58 61 C-58.66 61 -59.32 61 -60 61 C-61.9778697 64.42830748 -63 68.00618919 -63 72 C-59.32612505 72.85298376 -55.9552607 73.10789471 -52.1875 73.0625 C-50.475625 73.041875 -48.76375 73.02125 -47 73 C-46.01 69.7 -45.02 66.4 -44 63 C-43.01 63 -42.02 63 -41 63 C-41.495 61.02 -41.495 61.02 -42 59 C-41.01 58.67 -40.02 58.34 -39 58 C-37.96898053 55.68020619 -36.97063483 53.34570085 -36 51 C-34.35507315 49.02608778 -33.28731079 48.1436554 -31 47 C-30.18578446 44.21287756 -29.59066387 41.40385051 -28.9765625 38.56640625 C-28 36 -28 36 -26.0859375 34.65234375 C-24 34 -24 34 -21 34 C-21.20625 33.0925 -21.4125 32.185 -21.625 31.25 C-22 28 -22 28 -21.375 25.6875 C-19.49642216 23.38197265 -17.88544805 23.30373137 -15 23 C-14.34 20.69 -13.68 18.38 -13 16 C-12.01 16 -11.02 16 -10 16 C-9.7215625 15.01 -9.7215625 15.01 -9.4375 14 C-7.68463312 10.34184303 -5.31503406 7.81273909 -2.55859375 4.8671875 C-0.79044854 2.97995431 -0.79044854 2.97995431 0 0 Z " fill="#4BAD70" transform="translate(350,200)"/>
<path d="M0 0 C-2.08328712 8.48195471 -6.718554 14.95471418 -11.62841797 22.01513672 C-13.83670563 25.21082534 -15.97815824 28.45036426 -18.125 31.6875 C-18.96060224 32.94162969 -19.79653413 34.19553981 -20.6328125 35.44921875 C-21.23270996 36.34906494 -21.23270996 36.34906494 -21.84472656 37.26708984 C-26.42236328 44.13354492 -26.42236328 44.13354492 -31 51 C-31.4237793 51.63566895 -31.84755859 52.27133789 -32.28417969 52.92626953 C-35.85611979 58.28417969 -39.4280599 63.64208984 -43 69 C-42.75162044 72.14614103 -42.01611088 73.97335508 -40.375 76.6875 C-39.92125 77.450625 -39.4675 78.21375 -39 79 C-39.495 79.99 -39.495 79.99 -40 81 C-44.90453338 74.82554279 -46.75429531 70.9201007 -46 63 C-48.475 63.495 -48.475 63.495 -51 64 C-46.66018118 54.70353532 -39.90375156 46.35796699 -34 38 C-30.59317059 33.17149115 -27.21497705 28.32747044 -23.9140625 23.42578125 C-23.07319092 22.18235962 -23.07319092 22.18235962 -22.21533203 20.91381836 C-21.099794 19.26273951 -19.98854873 17.60874935 -18.88232422 15.95141602 C-6.04113611 -3.02056806 -6.04113611 -3.02056806 0 0 Z " fill="#C5D5CA" transform="translate(420,114)"/>
<path d="M0 0 C0.94082932 0.00359528 1.88165863 0.00719055 2.85099792 0.01089478 C4.3288829 0.01067574 4.3288829 0.01067574 5.83662415 0.01045227 C9.11023623 0.01115185 12.3837922 0.01894632 15.65739441 0.02676392 C17.92040984 0.02862794 20.18342567 0.03005191 22.44644165 0.03105164 C28.41577764 0.03487807 34.38508948 0.04470942 40.35441589 0.05575562 C46.44043145 0.06596705 52.52645089 0.07054868 58.61247253 0.07559204 C70.56365505 0.08633157 82.5148196 0.10340949 94.46598816 0.12442017 C96.01905475 3.80973764 96.72182051 6.55970295 96.73161316 10.57363892 C96.73548035 12.09247681 96.73548035 12.09247681 96.73942566 13.64199829 C96.73169128 14.68807251 96.72395691 15.73414673 96.71598816 16.81192017 C96.72758972 18.39843384 96.72758972 18.39843384 96.73942566 20.01699829 C96.73684753 21.0256897 96.73426941 22.0343811 96.73161316 23.07363892 C96.7293573 23.99491577 96.72710144 24.91619263 96.72477722 25.86538696 C96.46598816 28.12442017 96.46598816 28.12442017 94.46598816 30.12442017 C92.08317566 30.31973267 92.08317566 30.31973267 89.34098816 30.24942017 C88.43091003 30.23137329 87.52083191 30.21332642 86.58317566 30.19473267 C85.88450378 30.17152954 85.18583191 30.14832642 84.46598816 30.12442017 C85.45598816 32.59942017 85.45598816 32.59942017 86.46598816 35.12442017 C84.75714811 33.50102212 83.09152099 31.83122964 81.46598816 30.12442017 C81.46598816 29.46442017 81.46598816 28.80442017 81.46598816 28.12442017 C85.75598816 28.12442017 90.04598816 28.12442017 94.46598816 28.12442017 C94.46598816 19.54442017 94.46598816 10.96442017 94.46598816 2.12442017 C61.46598816 2.12442017 28.46598816 2.12442017 -5.53401184 2.12442017 C-5.53401184 60.53442017 -5.53401184 118.94442017 -5.53401184 179.12442017 C1.39598816 179.12442017 8.32598816 179.12442017 15.46598816 179.12442017 C15.46598816 179.45442017 15.46598816 179.78442017 15.46598816 180.12442017 C11.82017129 180.15329528 8.17438353 180.17117602 4.52848816 180.18692017 C3.48757019 180.19529907 2.44665222 180.20367798 1.37419128 180.21231079 C0.38483582 180.21553345 -0.60451965 180.2187561 -1.62385559 180.22207642 C-2.54029846 180.22731323 -3.45674133 180.23255005 -4.4009552 180.23794556 C-6.53401184 180.12442017 -6.53401184 180.12442017 -7.53401184 179.12442017 C-7.63331728 176.83581797 -7.6603364 174.544082 -7.66099548 172.25332642 C-7.66255547 171.52630524 -7.66411546 170.79928406 -7.66572273 170.05023193 C-7.66973531 167.59577451 -7.6665421 165.14137813 -7.66340637 162.68692017 C-7.6647603 160.93472253 -7.66654018 159.18252518 -7.66871643 157.43032837 C-7.67329179 152.65773832 -7.67150079 147.88516979 -7.66833735 143.11257935 C-7.66581427 138.12954651 -7.66815113 133.14651557 -7.66972351 128.16348267 C-7.67154536 119.79368762 -7.66913849 111.42390138 -7.66438293 103.05410767 C-7.65894029 93.3628163 -7.66070293 83.67154598 -7.66620934 73.98025513 C-7.67074003 65.67540303 -7.67139123 57.37055728 -7.66877067 49.06570435 C-7.66720765 44.09861913 -7.6670148 39.13154382 -7.67030716 34.16445923 C-7.67318524 29.49585988 -7.67121135 24.82728779 -7.6654129 20.15869141 C-7.66408496 18.44012497 -7.66447999 16.72155627 -7.66667557 15.00299072 C-7.66938576 12.66713363 -7.66600759 10.33136527 -7.66099548 7.99551392 C-7.66061846 6.68510132 -7.66024143 5.37468872 -7.65985298 4.02456665 C-7.42753746 -1.32939814 -4.70146412 0.0075927 0 0 Z " fill="#39393B" transform="translate(247.5340118408203,95.87557983398438)"/>
<path d="M0 0 C1.77734375 0.16796875 1.77734375 0.16796875 4 1 C5.81640625 3.36328125 5.81640625 3.36328125 7.5625 6.3125 C9.57825881 9.67509097 11.5844222 12.90894147 14 16 C13.67 16.66 13.34 17.32 13 18 C12.63737061 17.51104248 12.27474121 17.02208496 11.90112305 16.51831055 C9.14295877 14.31553366 7.07461838 14.65962056 3.58203125 14.70703125 C2.4525708 14.71452393 1.32311035 14.7220166 0.15942383 14.72973633 C-1.27506104 14.75704834 -2.7095459 14.78436035 -4.1875 14.8125 C-11.0246875 14.9053125 -11.0246875 14.9053125 -18 15 C-18 30.18 -18 45.36 -18 61 C-1.83 61 14.34 61 31 61 C31 61.33 31 61.66 31 62 C14.17 62 -2.66 62 -20 62 C-20.33 49.46 -20.66 36.92 -21 24 C-21.66 24 -22.32 24 -23 24 C-23.66 23.01 -24.32 22.02 -25 21 C-26.65816784 20.31246699 -28.32459336 19.64438717 -30 19 C-31.585869 15.828262 -31.37866445 12.36486178 -31.5625 8.875 C-31.60568359 8.12089844 -31.64886719 7.36679688 -31.69335938 6.58984375 C-31.7994832 4.72678112 -31.90025001 2.86341476 -32 1 C-27.55875383 4.04791404 -23.71648301 7.06490034 -20 11 C-18.18884044 12.81115956 -15.38721773 12.38199448 -12.9375 12.5625 C-11.83277344 12.64628906 -10.72804688 12.73007813 -9.58984375 12.81640625 C-8.30787109 12.90728516 -8.30787109 12.90728516 -7 13 C-6.95875 12.154375 -6.9175 11.30875 -6.875 10.4375 C-5.71090777 5.86428051 -3.22600877 3.33452895 0 0 Z " fill="#2F3131" transform="translate(289,111)"/>
<path d="M0 0 C0.66 0 1.32 0 2 0 C2.05796132 4.10410755 2.09358313 8.20811016 2.125 12.3125 C2.14175781 13.47974609 2.15851563 14.64699219 2.17578125 15.84960938 C2.18222656 16.96787109 2.18867188 18.08613281 2.1953125 19.23828125 C2.20578613 20.26993408 2.21625977 21.30158691 2.22705078 22.36450195 C2 25 2 25 0 28 C-2.10073853 28.36076355 -2.10073853 28.36076355 -4.72509766 28.34057617 C-5.70596344 28.34034958 -6.68682922 28.34012299 -7.69741821 28.33988953 C-8.75891083 28.32440567 -9.82040344 28.30892181 -10.9140625 28.29296875 C-11.99883881 28.28872391 -13.08361511 28.28447906 -14.20126343 28.28010559 C-17.67609167 28.263273 -21.15034618 28.22561189 -24.625 28.1875 C-26.97655414 28.17245911 -29.32811735 28.15876967 -31.6796875 28.14648438 C-37.45352544 28.11590261 -43.22611832 28.05718812 -49 28 C-49 43.51 -49 59.02 -49 75 C-45.37 75 -41.74 75 -38 75 C-38 75.33 -38 75.66 -38 76 C-41.96 76 -45.92 76 -50 76 C-50.33 63.46 -50.66 50.92 -51 38 C-52.98 37.67 -54.96 37.34 -57 37 C-59.296875 36.28515625 -59.296875 36.28515625 -61 35 C-63.20936076 28.31981017 -63.23245506 20.97365169 -63 14 C-61.93513145 14.89301656 -60.87324959 15.7895947 -59.8125 16.6875 C-58.92498047 17.43580078 -58.92498047 17.43580078 -58.01953125 18.19921875 C-56 20 -56 20 -54.1015625 22.56835938 C-49.43599684 26.22618636 -45.12913965 25.72786693 -39.35546875 25.70703125 C-37.66808342 25.72971321 -37.66808342 25.72971321 -35.9466095 25.75285339 C-32.36003652 25.79577886 -28.77430442 25.80457363 -25.1875 25.8125 C-22.75323278 25.83564035 -20.31898561 25.8610047 -17.88476562 25.88867188 C-11.92271756 25.95575254 -5.96302149 25.97666552 0 26 C0 17.42 0 8.84 0 0 Z " fill="#48484A" transform="translate(320,173)"/>
<path d="M0 0 C0 2.8996083 -0.21438138 5.21462489 -1 8 C-1.99 8.66 -2.98 9.32 -4 10 C-3.34 10.99 -2.68 11.98 -2 13 C-2.66 13.66 -3.32 14.32 -4 15 C-4.309375 16.010625 -4.61875 17.02125 -4.9375 18.0625 C-5.4634375 19.5165625 -5.4634375 19.5165625 -6 21 C-6.99 21.33 -7.98 21.66 -9 22 C-9.72870472 24.31470912 -10.39239518 26.6505947 -11 29 C-13 32 -13 32 -15.0625 32.9375 C-16.0215625 33.4634375 -16.0215625 33.4634375 -17 34 C-17.34342449 35.33076989 -17.67619874 36.66431979 -18 38 C-19.98332447 39.77815297 -21.71415035 40.88566014 -24.1875 41.875 C-26.25298082 42.86371174 -26.25298082 42.86371174 -26.5625 45.3125 C-26.706875 46.199375 -26.85125 47.08625 -27 48 C-28.4375 50.8125 -28.4375 50.8125 -30 53 C-30.66 53 -31.32 53 -32 53 C-33.46601919 55.54109992 -34.00488094 57.07972196 -34.1875 60.0625 C-34.455625 61.031875 -34.72375 62.00125 -35 63 C-38.53421596 64.93381628 -42.05096666 66.21019333 -46 67 C-44.71585545 62.39848203 -43.05477516 59.63270559 -40 56 C-36.845591 51.62500383 -33.78462092 47.18814024 -30.8125 42.6875 C-29 40 -29 40 -27.13671875 37.70703125 C-24.91765827 34.8956804 -22.95799855 31.99818527 -21 29 C-19.1289877 26.13501241 -17.27518945 23.34384258 -15.13671875 20.671875 C-12.18817762 16.984851 -9.51644007 13.118363 -6.8125 9.25 C-5.73655079 7.7129297 -4.65977233 6.17643943 -3.58203125 4.640625 C-2.87397339 3.62790527 -2.87397339 3.62790527 -2.15161133 2.59472656 C-1 1 -1 1 0 0 Z " fill="#39B372" transform="translate(322,208)"/>
<path d="M0 0 C1.134375 0.4125 2.26875 0.825 3.4375 1.25 C5.17577412 6.46482235 4.9185149 11.91508515 5.0625 17.375 C5.13339844 18.57382813 5.20429688 19.77265625 5.27734375 21.0078125 C5.38490595 26.17079798 5.45102106 29.80274504 2.42480469 34.12402344 C0.19773422 36.37757512 -1.99776748 38.39214623 -4.5625 40.25 C-4.8925 40.25 -5.2225 40.25 -5.5625 40.25 C-5.5625 27.05 -5.5625 13.85 -5.5625 0.25 C-3.5625 -0.75 -3.5625 -0.75 0 0 Z " fill="#EAEBEB" transform="translate(264.5625,217.75)"/>
<path d="M0 0 C0.33 1.32 0.66 2.64 1 4 C2.299375 3.979375 3.59875 3.95875 4.9375 3.9375 C6.29165633 3.91600546 7.64756083 3.92851801 9 4 C10 5 10 5 10.11352539 7.50024414 C10.10828857 8.58426514 10.10305176 9.66828613 10.09765625 10.78515625 C10.09515869 11.83840088 10.09266113 12.89164551 10.09008789 13.97680664 C10.08098389 15.32508545 10.07187988 16.67336426 10.0625 18.0625 C10.041875 22.331875 10.02125 26.60125 10 31 C-0.56 31 -11.12 31 -22 31 C-22 30.67 -22 30.34 -22 30 C-19.69 30 -17.38 30 -15 30 C-15 25.05 -15 20.1 -15 15 C-9.30866409 15.94855599 -7.20001367 16.81406474 -2.625 19.9375 C-1.56539063 20.64777344 -0.50578125 21.35804688 0.5859375 22.08984375 C1.38257813 22.72019531 2.17921875 23.35054688 3 24 C3 24.66 3 25.32 3 26 C4.32 26.66 5.64 27.32 7 28 C7.33 20.41 7.66 12.82 8 5 C4.37 5 0.74 5 -3 5 C-2.01 3.35 -1.02 1.7 0 0 Z " fill="#A0A0A3" transform="translate(334,244)"/>
<path d="M0 0 C0 3.65362776 -0.7833381 4.30245998 -3.0625 7.0625 C-6.39446309 11.1919715 -9.4408345 15.44795732 -12.421875 19.8359375 C-13.89092564 21.85042773 -15.06084723 23.44113801 -17 25 C-19.36010742 25.34057617 -19.36010742 25.34057617 -22.10546875 25.29296875 C-23.08837891 25.28330078 -24.07128906 25.27363281 -25.08398438 25.26367188 C-26.10814453 25.23853516 -27.13230469 25.21339844 -28.1875 25.1875 C-29.22326172 25.17396484 -30.25902344 25.16042969 -31.32617188 25.14648438 C-33.88463699 25.11111389 -36.4420578 25.06175544 -39 25 C-38.34 24.67 -37.68 24.34 -37 24 C-37 23.34 -37 22.68 -37 22 C-36.34 22 -35.68 22 -35 22 C-35 21.34 -35 20.68 -35 20 C-33.71086513 19.32845067 -32.41859796 18.66291141 -31.125 18 C-30.40570313 17.62875 -29.68640625 17.2575 -28.9453125 16.875 C-27 16 -27 16 -25 16 C-25 15.34 -25 14.68 -25 14 C-24.21496094 13.69707031 -23.42992187 13.39414062 -22.62109375 13.08203125 C-16.42069272 10.60947869 -11.26664894 8.08434 -6 4 C-4.33973644 2.98940479 -2.67529898 1.98546999 -1 1 C-0.67 0.67 -0.34 0.34 0 0 Z " fill="#9D9D9F" transform="translate(281,250)"/>
<path d="M0 0 C4.95 0 9.9 0 15 0 C15 7.59 15 15.18 15 23 C13.35 22.01 11.7 21.02 10 20 C10 19.34 10 18.68 10 18 C8.92685547 17.61714844 8.92685547 17.61714844 7.83203125 17.2265625 C4.79753382 15.9123112 2.36811089 14.30503984 -0.3125 12.375 C-1.19550781 11.74335938 -2.07851563 11.11171875 -2.98828125 10.4609375 C-3.65214844 9.97882813 -4.31601562 9.49671875 -5 9 C-3.35 6.03 -1.7 3.06 0 0 Z " fill="#EBEBED" transform="translate(327,250)"/>
<path d="M0 0 C10.56 0 21.12 0 32 0 C29.03 4.455 29.03 4.455 26 9 C25.67 10.32 25.34 11.64 25 13 C13.17849482 13.86078921 13.17849482 13.86078921 9.25 10.625 C7 8 7 8 7 6 C6.401875 5.7525 5.80375 5.505 5.1875 5.25 C3 4 3 4 0 0 Z " fill="#CECED0" transform="translate(257,111)"/>
<path d="M0 0 C0.0861953 4.99932751 -0.1627035 8.97622101 -1 14 C6.92 14.33 14.84 14.66 23 15 C23 15.33 23 15.66 23 16 C1.22 16 -20.56 16 -43 16 C-43 15.67 -43 15.34 -43 15 C-34.09 15 -25.18 15 -16 15 C-15.67 13.68 -15.34 12.36 -15 11 C-12.08100958 5.28729773 -6.82834795 0 0 0 Z " fill="#505654" transform="translate(320,260)"/>
<path d="M0 0 C4.44124617 3.04791404 8.28351699 6.06490034 12 10 C12.33 10.33 12.66 10.66 13 11 C13.09326716 12.56547048 13.11745582 14.13512772 13.11352539 15.70336914 C13.11344986 16.70433121 13.11337433 17.70529327 13.11329651 18.73658752 C13.10813522 19.8251152 13.10297394 20.91364288 13.09765625 22.03515625 C13.0962413 23.14354355 13.09482635 24.25193085 13.09336853 25.39390564 C13.08775033 28.95013069 13.07519475 32.50629383 13.0625 36.0625 C13.05748734 38.46679597 13.05292403 40.87109292 13.04882812 43.27539062 C13.03777499 49.18361504 13.02101917 55.0918031 13 61 C12.67 61 12.34 61 12 61 C11.67 48.46 11.34 35.92 11 23 C10.34 23 9.68 23 9 23 C8.34 22.01 7.68 21.02 7 20 C5.34183216 19.31246699 3.67540664 18.64438717 2 18 C0.414131 14.828262 0.62133555 11.36486178 0.4375 7.875 C0.39431641 7.12089844 0.35113281 6.36679688 0.30664062 5.58984375 C0.2005168 3.72678112 0.09974999 1.86341476 0 0 Z " fill="#68686A" transform="translate(257,112)"/>
<path d="M0 0 C24.09 0 48.18 0 73 0 C74.71872468 4.2968117 75.25500078 6.09442505 75.265625 10.44921875 C75.26949219 11.96805664 75.26949219 11.96805664 75.2734375 13.51757812 C75.26570313 14.56365234 75.25796875 15.60972656 75.25 16.6875 C75.26160156 18.27401367 75.26160156 18.27401367 75.2734375 19.89257812 C75.27085937 20.90126953 75.26828125 21.90996094 75.265625 22.94921875 C75.26336914 23.87049561 75.26111328 24.79177246 75.25878906 25.7409668 C75 28 75 28 73 30 C70.6171875 30.1953125 70.6171875 30.1953125 67.875 30.125 C66.96492188 30.10695313 66.05484375 30.08890625 65.1171875 30.0703125 C64.41851562 30.04710938 63.71984375 30.02390625 63 30 C63.99 32.475 63.99 32.475 65 35 C63.29115995 33.37660195 61.62553283 31.70680947 60 30 C60 29.34 60 28.68 60 28 C64.29 28 68.58 28 73 28 C73 19.42 73 10.84 73 2 C69.57367188 2.01160156 66.14734375 2.02320312 62.6171875 2.03515625 C59.21777437 2.04300357 55.81836234 2.04904785 52.41894531 2.05493164 C50.09569837 2.05989311 47.77245442 2.0666644 45.44921875 2.07543945 C30.26677028 2.13125728 15.1598297 1.84880501 0 1 C0 0.67 0 0.34 0 0 Z " fill="#3F3F4B" transform="translate(269,96)"/>
<path d="M0 0 C0.33 0.66 0.66 1.32 1 2 C0.01 3.485 0.01 3.485 -1 5 C-1.30520526 6.98654376 -1.30520526 6.98654376 -1.375 9.0625 C-1.684375 11.0115625 -1.684375 11.0115625 -2 13 C-4 14.1875 -4 14.1875 -6 15 C-6.60602665 17.36195411 -6.60602665 17.36195411 -7 20 C-8.4375 22.8125 -8.4375 22.8125 -10 25 C-10.66 25 -11.32 25 -12 25 C-13.46601919 27.54109992 -14.00488094 29.07972196 -14.1875 32.0625 C-14.455625 33.031875 -14.72375 34.00125 -15 35 C-18.53421596 36.93381628 -22.05096666 38.21019333 -26 39 C-24.71585545 34.39848203 -23.05477516 31.63270559 -20 28 C-16.845591 23.62500383 -13.78462092 19.18814024 -10.8125 14.6875 C-8.99981211 11.99972141 -7.03201999 9.5246309 -5 7 C-3.30857929 4.68338368 -1.65424465 2.34351325 0 0 Z " fill="#41AB71" transform="translate(302,236)"/>
<path d="M0 0 C14.95453929 1.66992355 14.95453929 1.66992355 20 7 C21.2109375 10.171875 21.2109375 10.171875 22 13 C17.46239433 13.75743649 13.50840761 14.02372119 9 13 C5.13807294 9.44850032 2.55492946 5.60151378 0 1 C0 0.67 0 0.34 0 0 Z " fill="#D6DEDB" transform="translate(320,111)"/>
<path d="M0 0 C-2.97646273 3.13367027 -5.65758297 5.6361433 -9.5 7.625 C-12.0154082 8.94517284 -14.37345377 10.24613999 -16.75 11.8125 C-19.3594536 13.18971162 -21.09035405 13.24939822 -24 13 C-23.29641403 7.84938987 -21.41529044 5.19111686 -17.7421875 1.60546875 C-12.36929464 -1.54019929 -5.99846811 -0.56235639 0 0 Z " fill="#CCCDCF" transform="translate(283,249)"/>
<path d="M0 0 C-0.53631126 4.55864568 -2.35632694 7.29885772 -5 11 C-5.75412444 12.12223942 -6.50429229 13.24715027 -7.25 14.375 C-8.11625 15.674375 -8.11625 15.674375 -9 17 C-10.24546405 14.50907189 -9.7767578 13.58919267 -9 11 C-15.02699295 12.29149849 -17.43169928 15.32913445 -21 20 C-22.175625 21.4540625 -22.175625 21.4540625 -23.375 22.9375 C-24.179375 23.9584375 -24.179375 23.9584375 -25 25 C-25 23.68 -25 22.36 -25 21 C-24.34 21 -23.68 21 -23 21 C-23 19.35 -23 17.7 -23 16 C-22.01 16 -21.02 16 -20 16 C-18.49069817 12.6136749 -18.49069817 12.6136749 -18 9 C-17.195625 8.731875 -16.39125 8.46375 -15.5625 8.1875 C-14.716875 7.795625 -13.87125 7.40375 -13 7 C-12.67 6.01 -12.34 5.02 -12 4 C-9.03 4.495 -9.03 4.495 -6 5 C-6 4.34 -6 3.68 -6 3 C-2.53846154 0 -2.53846154 0 0 0 Z " fill="#82CD73" transform="translate(428,103)"/>
<path d="M0 0 C1 2 1 2 0.29296875 4.2421875 C-0.07183594 5.11101562 -0.43664062 5.97984375 -0.8125 6.875 C-1.16957031 7.73867187 -1.52664063 8.60234375 -1.89453125 9.4921875 C-3 12 -3 12 -4.13671875 14.0703125 C-5.27224404 16.25621405 -5.27224404 16.25621405 -5 20 C-6.27875 20.20625 -7.5575 20.4125 -8.875 20.625 C-11.08603612 21.08739836 -11.08603612 21.08739836 -13 22 C-14.38401978 24.98395292 -14.38401978 24.98395292 -15 28 C-15.99 28.33 -16.98 28.66 -18 29 C-17.67 30.98 -17.34 32.96 -17 35 C-21.75 38 -21.75 38 -24 38 C-23.09808344 33.66063472 -20.84925093 30.47974322 -18.375 26.875 C-17.92350586 26.20774902 -17.47201172 25.54049805 -17.00683594 24.85302734 C-13.91887126 20.30228479 -10.77842103 15.78875043 -7.60546875 11.296875 C-5.00422836 7.5753924 -2.49943002 3.79034442 0 0 Z " fill="#CADACE" transform="translate(336,225)"/>
<path d="M0 0 C0 4.91243882 -3.51506015 8.1282359 -6.34765625 11.9921875 C-8.25024614 14.82613104 -8.25024614 14.82613104 -7.84765625 17.71484375 C-7.02814388 20.14314222 -7.02814388 20.14314222 -5.375 22.6875 C-4.92125 23.450625 -4.4675 24.21375 -4 25 C-4.33 25.66 -4.66 26.32 -5 27 C-9.90453338 20.82554279 -11.75429531 16.9201007 -11 9 C-12.65 9.33 -14.3 9.66 -16 10 C-15.3125 8.0625 -15.3125 8.0625 -14 6 C-12.34178227 5.62690101 -10.67422986 5.29299023 -9 5 C-8.34 4.01 -7.68 3.02 -7 2 C-3.9375 1.375 -3.9375 1.375 -1 1 C-0.67 0.67 -0.34 0.34 0 0 Z " fill="#A8AEAE" transform="translate(385,168)"/>
<path d="M0 0 C0 0.99 0 1.98 0 3 C-0.66 3 -1.32 3 -2 3 C-1.896875 3.67417969 -1.79375 4.34835938 -1.6875 5.04296875 C-2.14424237 9.36489343 -4.41426044 11.91959039 -7 15.3125 C-7.47695313 15.95767578 -7.95390625 16.60285156 -8.4453125 17.26757812 C-9.61964716 18.85292992 -10.80843396 20.42755839 -12 22 C-13.16156645 17.65795398 -13.44104911 14.32314734 -12 10 C-12 9.01 -12 8.02 -12 7 C-10.68 7 -9.36 7 -8 7 C-7.67 6.01 -7.34 5.02 -7 4 C-7 4.99 -7 5.98 -7 7 C-6.34 7 -5.68 7 -5 7 C-5 5.02 -5 3.04 -5 1 C-3 0 -3 0 0 0 Z " fill="#78D26B" transform="translate(405,121)"/>
<path d="M0 0 C0.33 0 0.66 0 1 0 C1 1.98 1 3.96 1 6 C0.01 6.33 -0.98 6.66 -2 7 C-3.22520264 10.00847418 -3.22520264 10.00847418 -4 13 C-4.66 13 -5.32 13 -6 13 C-6.18175781 13.63808594 -6.36351562 14.27617187 -6.55078125 14.93359375 C-6.80214844 15.75988281 -7.05351562 16.58617187 -7.3125 17.4375 C-7.55613281 18.26121094 -7.79976563 19.08492187 -8.05078125 19.93359375 C-8.36402344 20.61550781 -8.67726563 21.29742187 -9 22 C-9.99 22.33 -10.98 22.66 -12 23 C-12.73323796 25.01508358 -12.73323796 25.01508358 -13 27 C-14.32 27.33 -15.64 27.66 -17 28 C-17.103125 28.53625 -17.20625 29.0725 -17.3125 29.625 C-18.20165543 32.69662786 -19.35349483 35.25582472 -21 38 C-23.1875 38.875 -23.1875 38.875 -25 39 C-21.06123639 31.7722688 -16.34757736 25.11679741 -11.6640625 18.35742188 C-7.93920289 12.9466127 -4.42156612 7.4875244 -1.14208984 1.79418945 C-0.7652002 1.20210693 -0.38831055 0.61002441 0 0 Z " fill="#C2DCC7" transform="translate(362,186)"/>
<path d="M0 0 C0.99 0.33 1.98 0.66 3 1 C-1.09178695 7.61079329 -5.39013162 13.97465454 -10.015625 20.22265625 C-12.64542103 23.90333535 -15.01345855 27.72363678 -17.359375 31.58984375 C-19.02631315 34.03865527 -20.84270204 35.97870561 -23 38 C-23 36.35 -23 34.7 -23 33 C-22.34 33 -21.68 33 -21 33 C-20.67 32.34 -20.34 31.68 -20 31 C-17 26 -17 26 -15.87890625 24.1875 C-14.85884327 22.49327775 -13.92378041 20.74858435 -13 19 C-13.33 18.34 -13.66 17.68 -14 17 C-14 16.01 -14 15.02 -14 14 C-11.03 14.495 -11.03 14.495 -8 15 C-7.67 13.35 -7.34 11.7 -7 10 C-6.34 10 -5.68 10 -5 10 C-5.33 9.01 -5.66 8.02 -6 7 C-5.38125 6.773125 -4.7625 6.54625 -4.125 6.3125 C-1.38589791 4.62070165 -0.94975528 3.00755839 0 0 Z " fill="#76C573" transform="translate(376,162)"/>
<path d="M0 0 C2.83969488 2.56488569 4.50009199 4.16962377 5 8 C4.51171875 10.76171875 4.51171875 10.76171875 3.6875 13.6875 C3.29111328 15.14736328 3.29111328 15.14736328 2.88671875 16.63671875 C2 19 2 19 0 20 C-0.680625 21.1446875 -0.680625 21.1446875 -1.375 22.3125 C-2.99029261 24.98394547 -4.72521319 26.88209504 -7 29 C-7 27.68 -7 26.36 -7 25 C-8.65 26.65 -10.3 28.3 -12 30 C-10.69639323 26.3396263 -9.13631082 23.63307361 -6.6875 20.625 C-6.07261719 19.84898437 -5.45773437 19.07296875 -4.82421875 18.2734375 C-3.68746682 16.85675737 -2.54518051 15.44447839 -1.39453125 14.0390625 C1.36062543 10.57308549 1.36062543 10.57308549 1.875 6.3125 C1.441875 5.1678125 1.441875 5.1678125 1 4 C0.814375 3.236875 0.62875 2.47375 0.4375 1.6875 C0.293125 1.130625 0.14875 0.57375 0 0 Z " fill="#2A7347" transform="translate(335,178)"/>
<path d="M0 0 C9.9 0 19.8 0 30 0 C30 0.33 30 0.66 30 1 C28.73542969 1.02578125 27.47085937 1.0515625 26.16796875 1.078125 C24.50777782 1.13440266 22.8476229 1.19175007 21.1875 1.25 C20.35412109 1.26417969 19.52074219 1.27835937 18.66210938 1.29296875 C13.87719535 1.3903462 13.87719535 1.3903462 9.92578125 3.796875 C8.74173386 6.21631897 8.74173386 6.21631897 9 10 C11.475 10.99 11.475 10.99 14 12 C13.67 12.99 13.34 13.98 13 15 C8.94269953 13.49862009 7.55135309 11.14323424 5.375 7.5 C2.99842954 3.5068664 2.99842954 3.5068664 0 0 Z " fill="#78CF78" transform="translate(290,110)"/>
<path d="M0 0 C0.99 0.33 1.98 0.66 3 1 C-1.08412008 7.57919685 -5.32668243 14.03919734 -9.6875 20.4375 C-10.15067627 21.12328125 -10.61385254 21.8090625 -11.09106445 22.515625 C-13.48474552 26.0061051 -15.85904656 29.12385762 -19 32 C-18.71382813 31.29488281 -18.42765625 30.58976562 -18.1328125 29.86328125 C-16.99523169 26.98794768 -15.92607644 24.09547814 -14.875 21.1875 C-14.52179688 20.21167969 -14.16859375 19.23585937 -13.8046875 18.23046875 C-13.53914063 17.49441406 -13.27359375 16.75835937 -13 16 C-12.01 16 -11.02 16 -10 16 C-9.814375 15.34 -9.62875 14.68 -9.4375 14 C-7.68463312 10.34184303 -5.31503406 7.81273909 -2.55859375 4.8671875 C-0.79044854 2.97995431 -0.79044854 2.97995431 0 0 Z " fill="#5EB374" transform="translate(350,200)"/>
<path d="M0 0 C0.66 0.33 1.32 0.66 2 1 C0.1148286 8.43296154 -3.37787425 13.93425142 -8 20 C-8 19.01 -8 18.02 -8 17 C-8.24801765 15.68712396 -8.49814856 14.37464599 -8.75 13.0625 C-9.03515625 10.92578125 -9.03515625 10.92578125 -9 9 C-7.1875 6.75 -7.1875 6.75 -5 5 C-4.4740625 3.9171875 -4.4740625 3.9171875 -3.9375 2.8125 C-3 1 -3 1 0 0 Z " fill="#D9DBDE" transform="translate(418,113)"/>
<path d="M0 0 C2.21046868 3.31570301 2.25630672 4.39114769 2.265625 8.25390625 C2.26820313 9.27291016 2.27078125 10.29191406 2.2734375 11.34179688 C2.26570313 12.40462891 2.25796875 13.46746094 2.25 14.5625 C2.25773437 15.62919922 2.26546875 16.69589844 2.2734375 17.79492188 C2.27085937 18.81263672 2.26828125 19.83035156 2.265625 20.87890625 C2.26336914 21.8129126 2.26111328 22.74691895 2.25878906 23.70922852 C2 26 2 26 0 28 C-2.3828125 28.1953125 -2.3828125 28.1953125 -5.125 28.125 C-6.49011719 28.09792969 -6.49011719 28.09792969 -7.8828125 28.0703125 C-8.58148438 28.04710938 -9.28015625 28.02390625 -10 28 C-9.34 29.65 -8.68 31.3 -8 33 C-9.70884005 31.37660195 -11.37446717 29.70680947 -13 28 C-13 27.34 -13 26.68 -13 26 C-8.71 26 -4.42 26 0 26 C0 17.42 0 8.84 0 0 Z " fill="#727376" transform="translate(342,98)"/>
<path d="M0 0 C0 3.63 0 7.26 0 11 C-1.6396875 11.185625 -1.6396875 11.185625 -3.3125 11.375 C-7.07381802 11.75464801 -7.07381802 11.75464801 -10 14 C-9.835 13.4225 -9.67 12.845 -9.5 12.25 C-8.85537969 9.73335631 -8.85537969 9.73335631 -9 6 C-7.28515625 4.296875 -7.28515625 4.296875 -5.0625 2.75 C-4.33160156 2.22921875 -3.60070312 1.7084375 -2.84765625 1.171875 C-1 0 -1 0 0 0 Z " fill="#BFC0C2" transform="translate(268,174)"/>
<path d="M0 0 C0 3.65362776 -0.7833381 4.30245998 -3.0625 7.0625 C-6.41688344 11.21295415 -9.4529194 15.50097079 -12.421875 19.93359375 C-14 22 -14 22 -17 24 C-15.35211268 19.30985915 -15.35211268 19.30985915 -13.4375 17.625 C-11.66494012 15.93548001 -11.66494012 15.93548001 -11.625 12.625 C-10.8505836 8.1333849 -9.48103653 6.8481208 -6 4 C-4.36021682 2.95650161 -2.69905634 1.94392019 -1 1 C-0.67 0.67 -0.34 0.34 0 0 Z " fill="#555557" transform="translate(281,250)"/>
<path d="M0 0 C0.66 0.33 1.32 0.66 2 1 C1.42316338 4.89364717 -0.54821777 7.01189041 -3 10 C-3.33 10.99 -3.66 11.98 -4 13 C-6.31 12.67 -8.62 12.34 -11 12 C-11 11.01 -11 10.02 -11 9 C-6.65714286 5 -6.65714286 5 -4 5 C-3.71125 4.360625 -3.4225 3.72125 -3.125 3.0625 C-2 1 -2 1 0 0 Z " fill="#808082" transform="translate(268,262)"/>
<path d="M0 0 C0.33 1.32 0.66 2.64 1 4 C2.299375 3.979375 3.59875 3.95875 4.9375 3.9375 C6.29165633 3.91600546 7.64756083 3.92851801 9 4 C10 5 10 5 10.11352539 7.50024414 C10.10828857 8.58426514 10.10305176 9.66828613 10.09765625 10.78515625 C10.09443359 11.95498047 10.09121094 13.12480469 10.08789062 14.33007812 C10.07951172 15.56177734 10.07113281 16.79347656 10.0625 18.0625 C10.05798828 19.29806641 10.05347656 20.53363281 10.04882812 21.80664062 C10.03699608 24.87114117 10.02051173 27.93554721 10 31 C8 29 8 29 7.77294922 26.56982422 C7.78342285 25.5748291 7.79389648 24.57983398 7.8046875 23.5546875 C7.81113281 22.47832031 7.81757813 21.40195312 7.82421875 20.29296875 C7.84097656 19.16503906 7.85773438 18.03710938 7.875 16.875 C7.88402344 15.73933594 7.89304687 14.60367187 7.90234375 13.43359375 C7.92596801 10.62230663 7.9618399 7.81112738 8 5 C4.37 5 0.74 5 -3 5 C-2.01 3.35 -1.02 1.7 0 0 Z " fill="#5F6065" transform="translate(334,244)"/>
<path d="M0 0 C1.16667321 1.16667321 2.33159329 2.33514504 3.48828125 3.51171875 C4.51781136 4.52528715 5.57990756 5.50657031 6.66796875 6.45703125 C10.92060117 10.28541056 10.92060117 10.28541056 11.375 14.375 C11.25125 15.24125 11.1275 16.1075 11 17 C10.67 16.34 10.34 15.68 10 15 C9.34 15 8.68 15 8 15 C7.34 14.01 6.68 13.02 6 12 C4.34183216 11.31246699 2.67540664 10.64438717 1 10 C-0.60725635 6.78548731 -0.05748185 3.56387464 0 0 Z " fill="#858586" transform="translate(258,120)"/>
<path d="M0 0 C0.33 0 0.66 0 1 0 C1 1.65 1 3.3 1 5 C1.5662207 4.83250244 2.13244141 4.66500488 2.71582031 4.49243164 C5.12686029 3.972651 7.08980101 3.97167709 9.546875 4.12109375 C10.39121094 4.16943359 11.23554688 4.21777344 12.10546875 4.26757812 C12.97816406 4.32365234 13.85085938 4.37972656 14.75 4.4375 C16.08224609 4.51581055 16.08224609 4.51581055 17.44140625 4.59570312 C19.62799196 4.72501733 21.81407894 4.85996642 24 5 C24 5.66 24 6.32 24 7 C13.77 7 3.54 7 -7 7 C-7 6.67 -7 6.34 -7 6 C-4.69 6 -2.38 6 0 6 C0 4.02 0 2.04 0 0 Z " fill="#8B8A8E" transform="translate(319,268)"/>
<path d="M0 0 C-0.34933594 0.45890625 -0.69867188 0.9178125 -1.05859375 1.390625 C-1.51363281 2.00421875 -1.96867187 2.6178125 -2.4375 3.25 C-2.88996094 3.85328125 -3.34242188 4.4565625 -3.80859375 5.078125 C-5.03900997 7.06292756 -5.56112668 8.71987655 -6 11 C-6.66 11 -7.32 11 -8 11 C-8.66 10.01 -9.32 9.02 -10 8 C-10.66 7.34 -11.32 6.68 -12 6 C-8 0 -8 0 -6.125 -0.75 C-3.79860996 -1.02369295 -2.2373866 -0.61785571 0 0 Z " fill="#D4D4D5" transform="translate(342,233)"/>
<path d="M0 0 C2.64107354 2.46741391 3.79641403 4.57440916 5 8 C3.35 6.68 1.7 5.36 0 4 C-0.4846875 4.72703125 -0.969375 5.4540625 -1.46875 6.203125 C-2.8774042 8.3161063 -4.28767296 10.42801178 -5.69921875 12.5390625 C-7.21786623 14.81542156 -8.71922005 17.10181618 -10.20703125 19.3984375 C-10.90183594 20.46320313 -11.59664063 21.52796875 -12.3125 22.625 C-12.94800781 23.60726562 -13.58351563 24.58953125 -14.23828125 25.6015625 C-16 28 -16 28 -19 30 C-13.93092807 19.39881591 -6.53677198 9.7459719 0 0 Z " fill="#201F22" transform="translate(355,212)"/>
<path d="M0 0 C-1.82967117 3.88915611 -4.20047816 7.26914241 -6.66015625 10.78125 C-7.94103317 12.9023523 -8.55459125 14.58049568 -9 17 C-9.99 16.67 -10.98 16.34 -12 16 C-12.6875 13.9375 -12.6875 13.9375 -13 12 C-12.01 11.67 -11.02 11.34 -10 11 C-8.96898053 8.68020619 -7.97063483 6.34570085 -7 4 C-4.94472493 1.53366992 -3.3312274 0 0 0 Z " fill="#58AD74" transform="translate(321,247)"/>
<path d="M0 0 C0.33 0.66 0.66 1.32 1 2 C0.01 3.485 0.01 3.485 -1 5 C-1.30520526 6.98654376 -1.30520526 6.98654376 -1.375 9.0625 C-2 13 -2 13 -3.875 14.4375 C-4.926875 14.7159375 -4.926875 14.7159375 -6 15 C-9.33537489 16.11179163 -10.63707344 17.47411298 -13 20 C-11.82343019 15.17606379 -9.84915211 12.39154213 -6.59765625 8.8125 C-4.15292537 6.03901558 -2.1063699 3.03565074 0 0 Z " fill="#1D5F3F" transform="translate(302,236)"/>
<path d="M0 0 C0 3.88291746 -1.37860494 5.46752535 -3.5 8.6875 C-4.1496875 9.68136719 -4.799375 10.67523438 -5.46875 11.69921875 C-5.9740625 12.45847656 -6.479375 13.21773438 -7 14 C-3.9254644 13.2236068 -3.9254644 13.2236068 -2 11 C-1.67 12.32 -1.34 13.64 -1 15 C-8.42857143 18.28571429 -8.42857143 18.28571429 -12 19 C-10.72199451 14.42048034 -9.07872047 11.59184054 -6 8 C-4.90847456 6.56871052 -3.82553323 5.1308453 -2.75 3.6875 C-1.96882813 2.64142578 -1.96882813 2.64142578 -1.171875 1.57421875 C-0.78515625 1.05472656 -0.3984375 0.53523438 0 0 Z " fill="#1D603C" transform="translate(288,256)"/>
<path d="M0 0 C0.33 0.66 0.66 1.32 1 2 C0.34 2.928125 -0.32 3.85625 -1 4.8125 C-3.26574554 7.79636556 -3.26574554 7.79636556 -3 11 C-3.99 11 -4.98 11 -6 11 C-5.67 12.98 -5.34 14.96 -5 17 C-9.75 20 -9.75 20 -12 20 C-11.39235744 17.00265444 -10.46199224 14.88962107 -8.75 12.36328125 C-8.3065625 11.70392578 -7.863125 11.04457031 -7.40625 10.36523438 C-6.9421875 9.68783203 -6.478125 9.01042969 -6 8.3125 C-5.5359375 7.62349609 -5.071875 6.93449219 -4.59375 6.22460938 C-1.18332067 1.18332067 -1.18332067 1.18332067 0 0 Z " fill="#B8D2C0" transform="translate(324,243)"/>
<path d="M0 0 C0.66 0.66 1.32 1.32 2 2 C1.69759074 7.81556266 -0.42935974 12.50790419 -4 17 C-4.33 17 -4.66 17 -5 17 C-5.48761453 11.61456845 -5.79079255 7.38941118 -2.5 2.875 C-1.2625 1.451875 -1.2625 1.451875 0 0 Z " fill="#D8E3D7" transform="translate(368,178)"/>
<path d="M0 0 C3.63306385 3.32404462 6.17839248 7.01053254 8.8125 11.125 C9.23208984 11.75792969 9.65167969 12.39085937 10.08398438 13.04296875 C11.12236574 14.65442714 12.06953918 16.32391031 13 18 C12.67 18.66 12.34 19.32 12 20 C7.44907497 17.78603647 5.97367271 15.60523633 4 11 C3.649375 10.360625 3.29875 9.72125 2.9375 9.0625 C1.60737353 6.13622177 0.83413875 3.09822963 0 0 Z " fill="#3E8755" transform="translate(338,138)"/>
<path d="M0 0 C3.93242148 1.31080716 4.54408891 3.01302514 6.6875 6.5 C7.31011719 7.5003125 7.93273437 8.500625 8.57421875 9.53125 C10 12 10 12 10 13 C7.1875 13.3125 7.1875 13.3125 4 13 C0.54370976 9.18616249 0.41775611 4.92952211 0 0 Z " fill="#3F6245" transform="translate(290,111)"/>
<path d="M0 0 C0.33 0 0.66 0 1 0 C1.38479542 2.61660888 1.42926825 4.36387423 -0.078125 6.59765625 C-1.35531268 8.09137862 -2.67638826 9.54725541 -4 11 C-4.33 11.66 -4.66 12.32 -5 13 C-5.99 13.33 -6.98 13.66 -8 14 C-8.99 15.485 -8.99 15.485 -10 17 C-12 20 -12 20 -15 21 C-15 20.34 -15 19.68 -15 19 C-14.45730469 18.45859375 -13.91460937 17.9171875 -13.35546875 17.359375 C-10.26404485 14.26282436 -7.8492637 10.80482913 -5.3125 7.25 C-3.56873956 4.80918655 -1.80407471 2.3974811 0 0 Z " fill="#2A6236" transform="translate(366,139)"/>
<path d="M0 0 C11.88 0 23.76 0 36 0 C35.01 2.31 34.02 4.62 33 7 C32.505 6.01 32.505 6.01 32 5 C31.34 4.67 30.68 4.34 30 4 C30.66 4 31.32 4 32 4 C32 3.34 32 2.68 32 2 C21.44 1.67 10.88 1.34 0 1 C0 0.67 0 0.34 0 0 Z " fill="#6CB76B" transform="translate(396,98)"/>
<path d="M0 0 C0.99 0.33 1.98 0.66 3 1 C2.625 2.9375 2.625 2.9375 2 5 C1.01 5.495 1.01 5.495 0 6 C-2.40984262 10.24411911 -2.40984262 10.24411911 -3 15 C-3.99 15.33 -4.98 15.66 -6 16 C-7.18469826 12.44590521 -6.48826871 11.15792265 -4.96875 7.8515625 C-3.51486379 5.07276385 -1.81052864 2.55971291 0 0 Z " fill="#6FCC79" transform="translate(387,111)"/>
<path d="M0 0 C0.66 0 1.32 0 2 0 C0.125 4.875 0.125 4.875 -1 6 C-0.59070014 8.05396726 -0.59070014 8.05396726 0 10 C-0.639375 10.268125 -1.27875 10.53625 -1.9375 10.8125 C-4.33131686 11.88667752 -4.33131686 11.88667752 -5 15 C-5.66 15 -6.32 15 -7 15 C-7 13.35 -7 11.7 -7 10 C-6.34 10 -5.68 10 -5 10 C-4.9175 9.278125 -4.835 8.55625 -4.75 7.8125 C-3.84286169 4.41073132 -2.39989121 2.54533916 0 0 Z " fill="#6BCF71" transform="translate(375,129)"/>
<path d="M0 0 C2.19578473 2.67312924 3.19649201 4.67118118 4 8 C4.66 8.33 5.32 8.66 6 9 C6 9.66 6 10.32 6 11 C7.65 11 9.3 11 11 11 C11 11.99 11 12.98 11 14 C4.08571429 13.05714286 4.08571429 13.05714286 1 11 C-0.28317892 7.15046324 -0.06643637 4.05261865 0 0 Z " fill="#838384" transform="translate(258,197)"/>
<path d="M0 0 C0.66 0 1.32 0 2 0 C3.1574707 1.54125977 3.1574707 1.54125977 4.42578125 3.69140625 C5.12670898 4.86219727 5.12670898 4.86219727 5.84179688 6.05664062 C6.56979492 7.29704102 6.56979492 7.29704102 7.3125 8.5625 C10.66618272 14.22497654 14.09405494 19.69958275 18 25 C17.67 25.66 17.34 26.32 17 27 C3.05402112 8.27254265 3.05402112 8.27254265 0 0 Z " fill="#0E3013" transform="translate(309,139)"/>
<path d="M0 0 C1.4535556 2.90711121 0.71133997 4.89597103 0 8 C-0.66 8.66 -1.32 9.32 -2 10 C-2.6425235 12.06874034 -2.6425235 12.06874034 -3 14 C-3.66 14 -4.32 14 -5 14 C-5 13.34 -5 12.68 -5 12 C-5.66 12 -6.32 12 -7 12 C-6.38801624 8.56049636 -5.07941153 6.48435515 -2.9375 3.75 C-2.38964844 3.04359375 -1.84179688 2.3371875 -1.27734375 1.609375 C-0.85582031 1.07828125 -0.43429687 0.5471875 0 0 Z " fill="#4AB072" transform="translate(328,202)"/>
<path d="M0 0 C0.99 0 1.98 0 3 0 C5 3 5 3 5 6 C3 8.1875 3 8.1875 1 10 C1 8.68 1 7.36 1 6 C0.01 6 -0.98 6 -2 6 C-2.33 6.66 -2.66 7.32 -3 8 C-2.45276317 4.62537285 -1.9451 2.91765 0 0 Z " fill="#C1C4C4" transform="translate(394,144)"/>
<path d="M0 0 C2.475 0.495 2.475 0.495 5 1 C5 1.99 5 2.98 5 4 C5.94726954 5.69719127 6.94228261 7.36935236 8 9 C6.68 9.99 5.36 10.98 4 12 C1.57869669 9.57869669 1.47159496 8.19888623 0.875 4.875 C0.70742188 3.96492187 0.53984375 3.05484375 0.3671875 2.1171875 C0.24601562 1.41851562 0.12484375 0.71984375 0 0 Z " fill="#64D270" transform="translate(337,144)"/>
<path d="M0 0 C1.33895632 1.66215268 2.67130142 3.32963607 4 5 C4.804375 5.9590625 4.804375 5.9590625 5.625 6.9375 C7.32887195 9.49330792 8.13335293 12.06673298 9 15 C8.34 15.66 7.68 16.32 7 17 C7 15.68 7 14.36 7 13 C5.68 13.33 4.36 13.66 3 14 C2.67 13.34 2.34 12.68 2 12 C2.33 11.01 2.66 10.02 3 9 C2.26145768 6.36186139 2.26145768 6.36186139 1 4 C0.34 3.67 -0.32 3.34 -1 3 C-0.67 2.01 -0.34 1.02 0 0 Z " fill="#77CB77" transform="translate(322,114)"/>
<path d="M0 0 C0.33 0.66 0.66 1.32 1 2 C-2.625 7.875 -2.625 7.875 -6 9 C-6.33 8.01 -6.66 7.02 -7 6 C-7.66 6 -8.32 6 -9 6 C-7.73653858 3.47307716 -6.3504453 2.54457834 -4 1 C-1.75 0.3125 -1.75 0.3125 0 0 Z " fill="#C0C2C6" transform="translate(394,154)"/>
<path d="M0 0 C0.33 0.66 0.66 1.32 1 2 C0.0625 4.625 0.0625 4.625 -1 7 C-1.66 7 -2.32 7 -3 7 C-3.268125 7.721875 -3.53625 8.44375 -3.8125 9.1875 C-4.99901362 11.99766383 -6.27485639 14.48416557 -8 17 C-8.66 17 -9.32 17 -10 17 C-10 17.66 -10 18.32 -10 19 C-10.66 18.67 -11.32 18.34 -12 18 C-6 9 -6 9 0 0 Z " fill="#C4EAC1" transform="translate(397,136)"/>
<path d="M0 0 C2.76276177 0.52268466 5.3260876 1.10869587 8 2 C8 3.32 8 4.64 8 6 C8.66 6 9.32 6 10 6 C9.67 6.99 9.34 7.98 9 9 C4.12744585 7.64651274 2.47594119 5.3099717 0 1 C0 0.67 0 0.34 0 0 Z M4 3 C5 5 5 5 5 5 Z " fill="#6ED56D" transform="translate(310,138)"/>
<path d="M0 0 C0.66 0.33 1.32 0.66 2 1 C1.525625 1.5775 1.05125 2.155 0.5625 2.75 C-0.9484867 4.92582084 -1.54036151 6.42602448 -2 9 C-4.31 9 -6.62 9 -9 9 C-9 8.34 -9 7.68 -9 7 C-8.34 7 -7.68 7 -7 7 C-6.773125 6.401875 -6.54625 5.80375 -6.3125 5.1875 C-4.6388703 2.39811716 -2.91182274 1.3831158 0 0 Z " fill="#B1B1B3" transform="translate(284,115)"/>
<path d="M0 0 C-0.61875 0.28875 -1.2375 0.5775 -1.875 0.875 C-4.13325765 1.93720042 -4.13325765 1.93720042 -6 4 C-7.19544543 4.89252713 -8.40493411 5.76643511 -9.625 6.625 C-10.25664062 7.07101563 -10.88828125 7.51703125 -11.5390625 7.9765625 C-12.02117187 8.31429687 -12.50328125 8.65203125 -13 9 C-11.76596973 0.11498207 -8.22332144 -0.62062803 0 0 Z " fill="#76D570" transform="translate(405,99)"/>
<path d="M0 0 C2.64 0.33 5.28 0.66 8 1 C8 1.66 8 2.32 8 3 C7.34 3 6.68 3 6 3 C5.34 4.32 4.68 5.64 4 7 C3.34 7 2.68 7 2 7 C2 7.66 2 8.32 2 9 C0.68 8.67 -0.64 8.34 -2 8 C-1.67 6.68 -1.34 5.36 -1 4 C0.32 4 1.64 4 3 4 C3 3.34 3 2.68 3 2 C2.01 1.34 1.02 0.68 0 0 Z " fill="#7ED36C" transform="translate(420,99)"/>
<path d="M0 0 C0 2.8996083 -0.21438138 5.21462489 -1 8 C-1.99 8.66 -2.98 9.32 -4 10 C-3.01 11.485 -3.01 11.485 -2 13 C-2.99 13.33 -3.98 13.66 -5 14 C-5.33 13.34 -5.66 12.68 -6 12 C-6.99 12.66 -7.98 13.32 -9 14 C-7.45158425 10.65291949 -5.50894136 7.75332488 -3.375 4.75 C-2.74335938 3.85796875 -2.11171875 2.9659375 -1.4609375 2.046875 C-0.73777344 1.03367188 -0.73777344 1.03367188 0 0 Z " fill="#21653E" transform="translate(322,208)"/>
<path d="M0 0 C2.82594216 2.55246389 4.5344557 4.17295197 5 8 C4.36328125 10.54296875 4.36328125 10.54296875 3.3125 13.1875 C2.97863281 14.06792969 2.64476562 14.94835937 2.30078125 15.85546875 C1 18 1 18 -1.14453125 18.80078125 C-2.06298828 18.89939453 -2.06298828 18.89939453 -3 19 C-2.54625 18.278125 -2.0925 17.55625 -1.625 16.8125 C1.3125959 11.93753785 1.3125959 11.93753785 1.6875 6.4375 C1.460625 5.633125 1.23375 4.82875 1 4 C0.814375 3.236875 0.62875 2.47375 0.4375 1.6875 C0.293125 1.130625 0.14875 0.57375 0 0 Z " fill="#266A40" transform="translate(335,178)"/>
<path d="M0 0 C0 4.06305373 -1.6738213 5.70458018 -4 9 C-4.75352111 10.12264462 -5.50369456 11.24754571 -6.25 12.375 C-6.8275 13.24125 -7.405 14.1075 -8 15 C-9.24546405 12.50907189 -8.7767578 11.58919267 -8 9 C-9.32 8.67 -10.64 8.34 -12 8 C-11.01 7.01 -10.02 6.02 -9 5 C-8.34 5.33 -7.68 5.66 -7 6 C-6.01 6 -5.02 6 -4 6 C-1.78831775 3.05763218 -1.78831775 3.05763218 0 0 Z " fill="#848E86" transform="translate(427,105)"/>
<path d="M0 0 C1.02577148 0.14985352 1.02577148 0.14985352 2.07226562 0.30273438 C3.7369909 0.54720452 5.39995822 0.8035971 7.0625 1.0625 C7.0625 1.3925 7.0625 1.7225 7.0625 2.0625 C-1.1875 2.0625 -9.4375 2.0625 -17.9375 2.0625 C-12.29140241 -1.70156506 -6.45442327 -1.01978621 0 0 Z " fill="#53A172" transform="translate(294.9375,272.9375)"/>
<path d="M0 0 C0.66 0.99 1.32 1.98 2 3 C1.1025444 6.06630664 0.26961192 7.73038808 -2 10 C-4.125 9.625 -4.125 9.625 -6 9 C-4.3619751 5.48994665 -2.96865509 2.54456151 0 0 Z " fill="#E1E0E7" transform="translate(409,125)"/>
<path d="M0 0 C2 1.375 2 1.375 4 3 C4 3.66 4 4.32 4 5 C0.25 6.125 0.25 6.125 -2 5 C-2.28875 5.639375 -2.5775 6.27875 -2.875 6.9375 C-4 9 -4 9 -6 10 C-5.58578031 5.16743695 -3.53586014 3.17320782 0 0 Z " fill="#E8EDE9" transform="translate(380,165)"/>
<path d="M0 0 C4.62 0 9.24 0 14 0 C13.67 0.66 13.34 1.32 13 2 C9.7 2 6.4 2 3 2 C3.66 3.65 4.32 5.3 5 7 C3.29115995 5.37660195 1.62553283 3.70680947 0 2 C0 1.34 0 0.68 0 0 Z " fill="#223329" transform="translate(329,124)"/>
<path d="M0 0 C0 3.38023517 -0.87455622 5.83468937 -2 9 C-2.66 9 -3.32 9 -4 9 C-4 10.32 -4 11.64 -4 13 C-4.99 13 -5.98 13 -7 13 C-6.70876501 7.02968261 -3.97185616 4.105466 0 0 Z " fill="#878889" transform="translate(289,111)"/>
<path d="M0 0 C0.33 0 0.66 0 1 0 C1.375 2.1875 1.375 2.1875 1 5 C-1.75 7.5625 -1.75 7.5625 -3.3984375 8.796875 C-5.46154141 10.34671891 -7.21303412 12.14430467 -9 14 C-7.62219103 9.98139049 -5.73478207 7.23201518 -3 4 C-2.443125 3.236875 -1.88625 2.47375 -1.3125 1.6875 C-0.6628125 0.8521875 -0.6628125 0.8521875 0 0 Z " fill="#225535" transform="translate(312,222)"/>
<path d="M0 0 C-1.65167557 3.5786304 -3.78286492 6.74820188 -6 10 C-6.99 9.34 -7.98 8.68 -9 8 C-8.67 7.01 -8.34 6.02 -8 5 C-7.34 5 -6.68 5 -6 5 C-6 4.34 -6 3.68 -6 3 C-2.53846154 0 -2.53846154 0 0 0 Z " fill="#BCD0BF" transform="translate(428,103)"/>
<path d="M0 0 C0 2.92828926 -0.13970066 5.20402714 -1 8 C-3.26669413 9.51112942 -5.4031954 10.13439847 -8 11 C-6.46457536 6.52167812 -4.39145948 2.19572974 0 0 Z " fill="#5E7467" transform="translate(312,263)"/>
<path d="M0 0 C-0.33 1.65 -0.66 3.3 -1 5 C-2.98 5.66 -4.96 6.32 -7 7 C-6.6875 4.625 -6.6875 4.625 -6 2 C-3 0 -3 0 0 0 Z " fill="#E9E9EB" transform="translate(395,150)"/>
<path d="M0 0 C0.33 0.66 0.66 1.32 1 2 C-0.7089149 5.84505853 -2.79076938 9.42315043 -5 13 C-5.99 12.67 -6.98 12.34 -8 12 C-5.36 8.04 -2.72 4.08 0 0 Z " fill="#BDDBC1" transform="translate(345,212)"/>
<path d="M0 0 C1 2 1 2 0.22265625 4.3828125 C-0.16019531 5.28773438 -0.54304688 6.19265625 -0.9375 7.125 C-1.31777344 8.03507813 -1.69804687 8.94515625 -2.08984375 9.8828125 C-2.54037109 10.93082031 -2.54037109 10.93082031 -3 12 C-4.32 11.67 -5.64 11.34 -7 11 C-4.69 7.37 -2.38 3.74 0 0 Z " fill="#BCD8C5" transform="translate(336,225)"/>
<path d="M0 0 C1.32 0 2.64 0 4 0 C4.33 0.66 4.66 1.32 5 2 C6.65 2 8.3 2 10 2 C10 3.98 10 5.96 10 8 C9.34 7.01 8.68 6.02 8 5 C6.03638136 4.42251197 6.03638136 4.42251197 3.875 4.3125 C2.59625 4.209375 1.3175 4.10625 0 4 C0 2.68 0 1.36 0 0 Z " fill="#C4C4C4" transform="translate(259,214)"/>
<path d="M0 0 C0 3.83764027 -1.26535335 5.11486085 -3.5 8.1875 C-4.1496875 9.08855469 -4.799375 9.98960937 -5.46875 10.91796875 C-5.9740625 11.60503906 -6.479375 12.29210937 -7 13 C-7 10.33333333 -7 7.66666667 -7 5 C-6.01 5.33 -5.02 5.66 -4 6 C-3.8453125 5.071875 -3.8453125 5.071875 -3.6875 4.125 C-3 2 -3 2 0 0 Z " fill="#7E8586" transform="translate(417,120)"/>
<path d="M0 0 C1.2065625 0.0309375 1.2065625 0.0309375 2.4375 0.0625 C2.7675 1.0525 3.0975 2.0425 3.4375 3.0625 C0.30251708 4.92026765 -1.93721432 5.26390476 -5.5625 5.0625 C-3.15007962 0.07683121 -3.15007962 0.07683121 0 0 Z " fill="#C1C2C4" transform="translate(264.5625,256.9375)"/>
<path d="M0 0 C3.63 0 7.26 0 11 0 C9.35 1.65 7.7 3.3 6 5 C5.01 4.67 4.02 4.34 3 4 C3 3.01 3 2.02 3 1 C2.01 0.67 1.02 0.34 0 0 Z " fill="#B6B6BA" transform="translate(272,249)"/>
<path d="M0 0 C1.33895632 1.66215268 2.67130142 3.32963607 4 5 C4.598125 5.70125 5.19625 6.4025 5.8125 7.125 C6.204375 7.74375 6.59625 8.3625 7 9 C6.67 9.99 6.34 10.98 6 12 C5.67 10.68 5.34 9.36 5 8 C4.01 8.33 3.02 8.66 2 9 C2 8.34 2 7.68 2 7 C1.34 7 0.68 7 0 7 C0 4.69 0 2.38 0 0 Z " fill="#848788" transform="translate(387,205)"/>
<path d="M0 0 C0.33 0 0.66 0 1 0 C1.33 2.64 1.66 5.28 2 8 C0.35 8.33 -1.3 8.66 -3 9 C-2.5020163 5.26512223 -2.12508244 3.18762365 0 0 Z " fill="#56BC72" transform="translate(341,183)"/>
<path d="M0 0 C-1.44992269 4.10811428 -3.45407573 7.46855666 -6 11 C-6.33 11 -6.66 11 -7 11 C-6.51098901 4.64285714 -6.51098901 4.64285714 -4.0625 1.5625 C-2 0 -2 0 0 0 Z " fill="#7DCC70" transform="translate(392,143)"/>
<path d="M0 0 C0.66 0.33 1.32 0.66 2 1 C2.25 7.625 2.25 7.625 0 11 C-0.66 11 -1.32 11 -2 11 C-2.24042276 6.91281305 -1.42258812 3.82320557 0 0 Z " fill="#44B06F" transform="translate(322,236)"/>
<path d="M0 0 C7.42857143 1 7.42857143 1 11 2 C11 3.32 11 4.64 11 6 C10.484375 5.731875 9.96875 5.46375 9.4375 5.1875 C6.33598585 3.67650593 3.17737194 2.34427274 0 1 C0 0.67 0 0.34 0 0 Z " fill="#9D9D9D" transform="translate(258,209)"/>
<path d="M0 0 C2.475 0.495 2.475 0.495 5 1 C5 2.65 5 4.3 5 6 C3.35 6 1.7 6 0 6 C0 4.02 0 2.04 0 0 Z " fill="#6DD26E" transform="translate(328,160)"/>
<path d="M0 0 C0.33 0.66 0.66 1.32 1 2 C-1.01577062 6.50584021 -3.83128248 8.49876949 -8 11 C-6.52670958 5.99081256 -3.72484762 3.48192278 0 0 Z " fill="#BCDABD" transform="translate(414,114)"/>
<path d="M0 0 C0.28875 0.61875 0.5775 1.2375 0.875 1.875 C1.93720042 4.13325765 1.93720042 4.13325765 4 6 C4 7.32 4 8.64 4 10 C4.66 10.33 5.32 10.66 6 11 C3.5625 10.625 3.5625 10.625 1 10 C-0.60725635 6.78548731 -0.05748185 3.56387464 0 0 Z " fill="#969698" transform="translate(258,120)"/>
<path d="M0 0 C7.57142857 3 7.57142857 3 10 6 C8.35 6.33 6.7 6.66 5 7 C4.67 6.01 4.34 5.02 4 4 C1.99983534 2.79117904 1.99983534 2.79117904 0 2 C0 1.34 0 0.68 0 0 Z " fill="#B0B0B1" transform="translate(259,210)"/>
<path d="M0 0 C1.98 0.99 1.98 0.99 4 2 C4 3.32 4 4.64 4 6 C4.99 6 5.98 6 7 6 C7 6.66 7 7.32 7 8 C4.625 7.75 4.625 7.75 2 7 C0.2058242 4.43689172 0 3.16880694 0 0 Z " fill="#535A57" transform="translate(291,116)"/>
<path d="M0 0 C0 3.67168136 -0.78368346 6.54310037 -2 10 C-2.99 10.33 -3.98 10.66 -5 11 C-5.33 11.66 -5.66 12.32 -6 13 C-6.66 12.34 -7.32 11.68 -8 11 C-7.21625 10.46375 -6.4325 9.9275 -5.625 9.375 C-2.65070222 6.68396867 -2.01660112 4.8122542 -1 1 C-0.67 0.67 -0.34 0.34 0 0 Z " fill="#47B177" transform="translate(315,220)"/>
<path d="M0 0 C1.98 0.99 3.96 1.98 6 3 C5.67 4.98 5.34 6.96 5 9 C2.5 6.75 2.5 6.75 0 4 C0 2.68 0 1.36 0 0 Z " fill="#6EC476" transform="translate(321,153)"/>
<path d="M0 0 C0.99 0 1.98 0 3 0 C3.36923077 5.53846154 3.36923077 5.53846154 1.5 7.875 C0.7575 8.431875 0.7575 8.431875 0 9 C-1.10844919 5.67465243 -0.84454356 3.37817425 0 0 Z " fill="#E1E2E5" transform="translate(398,139)"/>
<path d="M0 0 C0.99 0.33 1.98 0.66 3 1 C3.33 3.31 3.66 5.62 4 8 C3.67 7.01 3.34 6.02 3 5 C1.35 5 -0.3 5 -2 5 C-1.34 3.35 -0.68 1.7 0 0 Z " fill="#6ACF75" transform="translate(331,131)"/>
<path d="M0 0 C2.31 0 4.62 0 7 0 C6.01 2.31 5.02 4.62 4 7 C3.67 6.34 3.34 5.68 3 5 C2.34 4.67 1.68 4.34 1 4 C1.66 4 2.32 4 3 4 C3 3.34 3 2.68 3 2 C2.01 2 1.02 2 0 2 C0 1.34 0 0.68 0 0 Z " fill="#76AC72" transform="translate(425,98)"/>
<path d="M0 0 C1.32 0.66 2.64 1.32 4 2 C0.04 2 -3.92 2 -8 2 C-6.15250685 -1.69498631 -3.41131658 -1.13710553 0 0 Z " fill="#8F8F91" transform="translate(257,273)"/>
<path d="M0 0 C0.33 1.32 0.66 2.64 1 4 C3.64 4 6.28 4 9 4 C9 4.33 9 4.66 9 5 C5.04 5 1.08 5 -3 5 C-2.01 3.35 -1.02 1.7 0 0 Z " fill="#303132" transform="translate(334,244)"/>
<path d="M0 0 C0.99 0.33 1.98 0.66 3 1 C1.75023244 4.65316671 1.32901247 5.78065836 -2 8 C-2.33 7.01 -2.66 6.02 -3 5 C-2.67 4.34 -2.34 3.68 -2 3 C-1.34 3 -0.68 3 0 3 C0 2.01 0 1.02 0 0 Z " fill="#69D673" transform="translate(383,119)"/>
<path d="M0 0 C0.33 0.66 0.66 1.32 1 2 C0.04663979 3.31611677 -0.91285774 4.62778961 -1.875 5.9375 C-2.40867187 6.66839844 -2.94234375 7.39929688 -3.4921875 8.15234375 C-5 10 -5 10 -7 11 C-5.5140084 6.40693504 -3.14985318 3.56430755 0 0 Z " fill="#0F0F10" transform="translate(271,263)"/>
<path d="M0 0 C0.66 0 1.32 0 2 0 C2 0.66 2 1.32 2 2 C2.99 1.67 3.98 1.34 5 1 C4.1875 3.4375 4.1875 3.4375 3 6 C2.01 6.33 1.02 6.66 0 7 C0 4.69 0 2.38 0 0 Z " fill="#4FBA6B" transform="translate(345,200)"/>
<path d="M0 0 C0.99 0 1.98 0 3 0 C3 0.66 3 1.32 3 2 C6.3 2 9.6 2 13 2 C13 2.33 13 2.66 13 3 C6.565 3.495 6.565 3.495 0 4 C0 2.68 0 1.36 0 0 Z " fill="#ECFAEF" transform="translate(291,106)"/>
<path d="M0 0 C0 3.90838866 -1.50567876 5.11594107 -4 8 C-4.99 7.67 -5.98 7.34 -7 7 C-6.34 6.67 -5.68 6.34 -5 6 C-4.505 5.175 -4.01 4.35 -3.5 3.5 C-2 1 -2 1 0 0 Z " fill="#6ACC75" transform="translate(358,155)"/>
<path d="M0 0 C2.31 0.33 4.62 0.66 7 1 C7 1.66 7 2.32 7 3 C4.03 3 1.06 3 -2 3 C-1.34 2.67 -0.68 2.34 0 2 C0 1.34 0 0.68 0 0 Z " fill="#96969A" transform="translate(421,272)"/>
<path d="M0 0 C1.2077558 3.62326739 0.54311128 4.64146369 -1 8 C-1.33 7.34 -1.66 6.68 -2 6 C-2.66 6 -3.32 6 -4 6 C-2.84826645 3.53199953 -1.95216435 1.95216435 0 0 Z " fill="#6ACE60" transform="translate(371,162)"/>
<path d="M0 0 C1.33332095 2.6666419 0.67102033 4.16680303 0 7 C-1.32 7.33 -2.64 7.66 -4 8 C-3.40072174 4.64404172 -2.15377564 2.62198774 0 0 Z " fill="#64C777" transform="translate(381,120)"/>
<path d="M0 0 C2.475 0.495 2.475 0.495 5 1 C4.67 2.65 4.34 4.3 4 6 C1.7522025 3.94766315 0.9977758 2.99332739 0 0 Z " fill="#70C872" transform="translate(310,138)"/>
</svg>
